<?xml version="1.0" standalone="no"?><!DOCTYPE svg PUBLIC "-//W3C//DTD SVG 1.1//EN" "http://www.w3.org/Graphics/SVG/1.1/DTD/svg11.dtd"><svg t="1627269200319" class="icon" viewBox="0 0 1024 1024" version="1.1" xmlns="http://www.w3.org/2000/svg" p-id="22904" xmlns:xlink="http://www.w3.org/1999/xlink" width="32" height="32"><defs><style type="text/css">@font-face { font-family: feedback-iconfont; src: url("//at.alicdn.com/t/font_1031158_1uhr8ri0pk5.eot?#iefix") format("embedded-opentype"), url("//at.alicdn.com/t/font_1031158_1uhr8ri0pk5.woff2") format("woff2"), url("//at.alicdn.com/t/font_1031158_1uhr8ri0pk5.woff") format("woff"), url("//at.alicdn.com/t/font_1031158_1uhr8ri0pk5.ttf") format("truetype"), url("//at.alicdn.com/t/font_1031158_1uhr8ri0pk5.svg#iconfont") format("svg"); }
</style></defs><path d="M493.12 262.016c156.992 0.448 283.712 128.128 283.264 286.72l-0.064 347.648h88.128c17.28 0 31.552 14.336 31.552 31.808a31.168 31.168 0 0 1-31.168 31.808H95.552a31.808 31.808 0 0 1 0-63.616h87.168V548.288c0.448-153.6 120.448-278.912 270.784-285.952l13.376-0.32zM369.92 576.96a25.408 25.408 0 0 0-25.344 25.536v134.848c0 13.888 11.136 25.536 25.344 25.536a25.408 25.408 0 0 0 25.344-25.536V602.496a25.408 25.408 0 0 0-25.344-25.536zM234.752 144.64a3.392 3.392 0 0 1 0.896 1.792l49.792 86.912a25.792 25.792 0 0 1-22.208 38.528 26.24 26.24 0 0 1-22.272-12.992l-49.28-86.912a25.6 25.6 0 0 1 7.936-35.392 25.216 25.216 0 0 1 35.2 8.064z m516.288-7.168a25.792 25.792 0 0 1 9.344 34.944l-49.856 86.912a25.728 25.728 0 0 1-22.208 12.544 25.408 25.408 0 0 1-25.344-25.536c0-4.48 1.28-8.96 3.584-12.544l49.792-86.912a25.408 25.408 0 0 1 34.688-9.408zM480.192 64c13.824 0 25.344 11.648 25.344 25.536v100.352a25.152 25.152 0 0 1-25.344 25.536 25.408 25.408 0 0 1-25.344-25.536V89.536c0-14.336 11.584-25.536 25.344-25.536z" p-id="22905" fill="#ffffff"></path></svg>