<?xml version="1.0" encoding="utf-8"?>
<!-- Generator: Adobe Illustrator 23.0.1, SVG Export Plug-In . SVG Version: 6.00 Build 0)  -->
<svg version="1.1" id="图层_1" xmlns="http://www.w3.org/2000/svg" xmlns:xlink="http://www.w3.org/1999/xlink" x="0px" y="0px"
	 viewBox="0 0 841.9 595.3" style="enable-background:new 0 0 841.9 595.3;" xml:space="preserve">
<style type="text/css">
	.st0{fill:#4C4948;}
	.st1{fill:#0068B7;}
	.st2{fill:#E60012;}
</style>
<g>
	<g>
		<g>
			<path class="st0" d="M393.2,273.2V300h-6.8v-2.7h-12.2V314h-6.8v-16.7h-12.2v2.9h-6.5v-27h18.6v-9.3h6.8v9.3H393.2z M367.4,291
				v-11.5h-12.2V291H367.4z M386.4,291v-11.5h-12.2V291H386.4z"/>
			<path class="st0" d="M448.1,266v48h-6.9v-2.7h-32v2.7h-6.5v-48H448.1z M441.3,305.4v-33.5h-32v33.5H441.3z M439.4,297.1v5.2h-28
				v-5.2h10.9v-6.3h-8.9v-5.4h8.9v-5H412v-5.6h26.5v5.6h-10.3v5h9.1v5.4h-3c1.5,1.5,3.2,3.5,4.1,4.8l-2.8,1.6H439.4z M428.2,297.1
				h5.4c-0.9-1.4-2.4-3.3-3.7-4.7l3.3-1.7h-5V297.1z"/>
			<path class="st0" d="M475,267.2c2.5,3.6,5.2,8.4,6.1,11.8l-5.8,2.3c-0.2-0.8-0.5-1.7-0.9-2.7c-13,1.1-15.1,1.4-16.5,2
				c-0.3-1.2-1.4-4.2-2.2-5.9c0.9-0.2,1.7-0.9,2.6-2.1c0.8-1.1,3.3-4.8,4.9-8.8l6.8,1.8c-1.5,3.1-3.7,6.2-5.7,8.8l7.9-0.5
				c-0.8-1.6-1.8-3.2-2.6-4.7L475,267.2z M478.4,307.5c0,2.8-0.5,4.3-2.4,5.3c-1.8,1-4.3,1.1-7.5,1.1c-0.3-1.7-1.3-4.1-2.1-5.6
				c1.9,0.1,4.1,0.1,4.8,0c0.6,0,0.9-0.2,0.9-0.8v-3.6h-8v10.1H458v-30.8h20.4V307.5z M464,288.4v2.8h8v-2.8H464z M472,299.1V296h-8
				v3.1H472z M490.4,287.9c-6.3,0-7.8-1.8-7.8-7.7v-16.1h6.4v7.7c3.7-1.4,7.3-3.1,9.8-4.5l4.1,4.6c-4.1,2-9.2,3.6-13.9,5v3.2
				c0,1.9,0.3,2.1,2.4,2.1h5.8c1.8,0,2.1-0.8,2.4-5.5c1.3,1,3.8,1.9,5.6,2.3c-0.7,6.9-2.4,8.8-7.3,8.8H490.4z M497.5,308.1
				c1.9,0,2.2-1,2.5-6.4c1.4,0.9,3.9,1.9,5.6,2.3c-0.6,7.5-2.4,9.6-7.5,9.6h-7.6c-6.3,0-7.9-1.9-7.9-7.7v-16.8h6.4v7.2
				c3.8-1.5,7.6-3.3,10.2-5l4.2,4.7c-4.2,2.2-9.5,4.1-14.4,5.7v4.2c0,1.9,0.4,2.1,2.5,2.1H497.5z"/>
			<path class="st0" d="M528.8,282.7c-0.7,7.9-2.1,14.3-4.2,19.5c5,4.2,11.7,5.1,19.6,5.2c3.1,0,14.3,0,18-0.2
				c-0.9,1.3-1.9,4.1-2.3,5.8h-15.9c-9.1,0-16.5-1.2-22-5.7c-1.7,2.8-3.7,5-5.9,6.7c-0.9-1.2-3.3-3.4-4.6-4.2
				c2.6-1.8,4.7-4.1,6.4-7.1c-1.8-2.8-3.5-6.2-4.8-10.4l4.7-1.6c0.7,2.4,1.6,4.5,2.6,6.2c1-2.7,1.6-5.9,2.1-9.5h-8.6
				c2.2-4,4.9-9.7,7.2-15.1h-8v-5.5h16.6c-2.1,4.8-4.6,10.5-6.9,15.1h1.3l1.1-0.1L528.8,282.7z M540.2,273H531v-4.8h9.2v-4h6.1v4
				h11.8v7.2h3v4.9h-3v7.1h-11.8v2.6h12.4v4.6h-12.4v2.6h14.2v5h-14.2v3.6h-6.1v-3.6h-11.9v-5h11.9v-2.6h-9.8v-4.6h9.8v-2.6h-9.5
				v-4.8h9.5v-2.3H528v-4.9h12.2V273z M546.2,273v2.4h6.2V273H546.2z M552.5,280.2h-6.2v2.3h6.2V280.2z"/>
			<path class="st0" d="M576.7,289.8c-2.2-1.6-6.8-4.1-10-5.8l3.5-4.7c3.1,1.4,7.8,3.7,10.2,5.2L576.7,289.8z M583.5,296.5
				c-2.8,5.5-6.3,11.6-9.5,16.9l-5.4-4.3c2.9-4,7-10.7,10.2-16.9L583.5,296.5z M579.4,275.5c-2.1-1.7-6.5-4.4-9.6-6.3l3.7-4.5
				c3,1.6,7.5,4.1,9.7,5.7L579.4,275.5z M616.8,304.4v6.4h-35.3v-6.4h13.9v-29.6h-11v-6.4h29.9v6.4h-11.9v29.6H616.8z"/>
			<path class="st0" d="M635,294.3c-2.1,3.6-4.8,8.3-7.5,11.4l-5.3-3.2c2.9-2.8,5.8-7.1,7.7-10.8L635,294.3z M633.5,274.2h-11.2
				v-5.9h11.2V264h6.4v4.3h12.7V264h6.5v4.3h11.1v5.9h-11.1v5h-6.5v-5H640v5h-6.4V274.2z M665.4,306.2c-0.6-2.6-2.1-6.6-3.6-10.2
				c-0.6,9.3-1.4,13.3-2.8,14.9c-1.4,1.8-3,2.3-5.1,2.5c-1.8,0.3-5,0.2-8,0.1c-0.1-1.6-0.9-4-1.9-5.6c3,0.2,5.8,0.3,7,0.3
				c1.1,0,1.6-0.2,2.2-0.8c1.1-1.2,1.8-6.3,2.3-18.1H647c-1.6,10.9-6,19.8-20.2,24.9c-0.6-1.6-2.3-3.8-3.7-5
				c12.4-4.1,16.1-11,17.5-19.8h-14.4v-6h15c0.1-1.7,0.2-3.3,0.3-5.1h6.5c-0.1,1.8-0.2,3.4-0.3,5.1h14.7c0,0-0.1,2-0.1,2.8
				c-0.1,2.5-0.2,4.8-0.3,6.8l4-1.3c1.9,3.9,4.2,9.2,5.1,12.4L665.4,306.2z"/>
			<path class="st0" d="M695.3,268.2c-1.4,4.5-3.2,9.9-4.7,14c3.2,4.2,3.9,8,3.9,11.1c0,3.5-0.7,5.8-2.4,7.1c-0.8,0.6-1.8,1-3.1,1.2
				c-1,0.2-2.2,0.2-3.5,0.1c0-1.6-0.5-3.9-1.4-5.5c0.9,0.1,1.7,0.1,2.3,0.1c0.5,0,1-0.1,1.5-0.4c0.6-0.5,0.9-1.7,0.9-3.2
				c0-2.6-0.6-6-3.7-9.8c1.1-3.2,2.2-7.6,3-11.1h-4.3v42.1h-5.6V266h11.9l0.9-0.3L695.3,268.2z M720.6,307.9c0.8,0,1.1-0.9,1.2-6.4
				c1.2,1,3.7,1.9,5.2,2.4c-0.5,7.3-2,9.4-5.8,9.4h-3.7c-4.8,0-5.8-1.8-5.8-7.1v-10.9h-3.6c-0.8,9-3.3,15.2-13.8,18.8
				c-0.6-1.6-2.3-3.9-3.6-5.1c8.6-2.6,10.5-7,11.2-13.7h-6.5v-5.7h30.8v5.7h-8.5v11c0,1.5,0.1,1.7,0.9,1.7H720.6z M699.5,280.8h-4.2
				v-10.6h12.5c-0.6-1.7-1.4-3.5-2.2-5.1l6.1-1.7c1.2,2.1,2.5,4.8,3.1,6.8H726v10.6h-4.3v4.8h-22.2V280.8z M701.3,275.7v4.3h18.6
				v-4.3H701.3z"/>
		</g>
	</g>
	<g>
		<g>
			<path class="st0" d="M503,346.9c0-6.9,4.7-10.9,10.4-10.9c2.8,0,5.1,1.3,6.6,2.7l-2.4,2.7c-1.1-1-2.4-1.8-4.1-1.8
				c-3.4,0-5.9,2.7-5.9,7.2c0,4.6,2.3,7.3,5.8,7.3c1.9,0,3.4-0.8,4.6-2.1l2.4,2.6c-1.8,2-4.2,3.1-7.1,3.1
				C507.6,357.6,503,353.9,503,346.9z"/>
			<path class="st0" d="M524.3,336.3h4.5v8.2h8.5v-8.2h4.4v20.9h-4.4v-9h-8.5v9h-4.5V336.3z"/>
			<path class="st0" d="M547.5,336.3h4.5v20.9h-4.5V336.3z"/>
			<path class="st0" d="M557.7,336.3h4.6l6.5,11.1l2.2,4.5h0.2c-0.2-2.2-0.6-4.9-0.6-7.3v-8.3h4.2v20.9h-4.5l-6.5-11.2l-2.3-4.5
				h-0.2c0.2,2.3,0.5,4.9,0.5,7.3v8.4h-4.2V336.3z"/>
			<path class="st0" d="M591.1,351.9h-7.2l-1.6,5.4h-4.5l7.2-20.9h5.3l7.2,20.9h-4.7L591.1,351.9z M590.2,348.6l-0.7-2.3
				c-0.7-2.2-1.3-4.6-2-6.8h-0.1c-0.6,2.3-1.2,4.7-1.9,6.8l-0.7,2.3H590.2z"/>
			<path class="st0" d="M352.6,337.1h13.7v3.5h-9.2v4.8h7.9v3.5h-7.9v5.6h9.6v3.5h-14V337.1z"/>
			<path class="st0" d="M371.5,337.1h4.6l6.5,11.1l2.2,4.5h0.2c-0.2-2.2-0.6-4.9-0.6-7.3v-8.3h4.2V358H384l-6.5-11.2l-2.3-4.5h-0.2
				c0.2,2.3,0.5,4.9,0.5,7.3v8.4h-4.2V337.1z"/>
			<path class="st0" d="M394.4,337.1h13.7v3.5h-9.2v4.8h7.9v3.5h-7.9v5.6h9.6v3.5h-14V337.1z"/>
			<path class="st0" d="M425.4,358l-4.6-7.9h-3.1v7.9h-4.5v-20.9h7.8c4.7,0,8.4,1.5,8.4,6.3c0,3.1-1.7,5.1-4.3,6l5.2,8.6H425.4z
				 M417.7,346.8h2.9c2.9,0,4.4-1.1,4.4-3.4c0-2.3-1.6-3-4.4-3h-2.9V346.8z"/>
			<path class="st0" d="M433,347.6c0-6.9,4.8-10.9,10.7-10.9c3.2,0,5.5,1.3,6.9,2.7l-2.4,2.7c-1.1-1-2.4-1.8-4.4-1.8
				c-3.7,0-6.3,2.7-6.3,7.2c0,4.6,2.2,7.3,6.6,7.3c1.1,0,2.2-0.3,2.8-0.8v-4.1h-4v-3.4h7.9v9.4c-1.5,1.4-4.1,2.5-7.2,2.5
				C437.7,358.4,433,354.6,433,347.6z"/>
			<path class="st0" d="M459.9,350.3l-6.7-13.3h4.7l2.2,5.1c0.6,1.6,1.2,3,1.9,4.6h0.1c0.7-1.6,1.4-3.1,2-4.6l2.2-5.1h4.7l-6.7,13.3
				v7.7h-4.5V350.3z"/>
			<path class="st0" d="M632.2,352.8l3.3-2.2c0.9,1.6,2.2,2.3,3.5,2.3c2.1,0,3.2-1,3.2-4.1v-14.6h4.7v15c0,4.2-2.2,7.6-7.3,7.6
				C636.1,356.7,633.8,355.4,632.2,352.8z"/>
			<path class="st0" d="M651.1,353.5l2.7-3c1.7,1.5,3.9,2.4,6,2.4c2.5,0,3.8-1,3.8-2.5c0-1.6-1.4-2.2-3.5-3l-3.2-1.3
				c-2.4-0.9-4.8-2.7-4.8-5.9c0-3.6,3.4-6.4,8.2-6.4c2.7,0,5.5,1,7.4,2.8l-2.4,2.8c-1.5-1.2-3.1-1.8-5-1.8c-2.1,0-3.4,0.9-3.4,2.3
				c0,1.6,1.7,2.2,3.7,2.9l3.1,1.2c2.9,1.1,4.8,2.8,4.8,6c0,3.6-3.2,6.7-8.7,6.7C656.6,356.7,653.4,355.5,651.1,353.5z"/>
			<path class="st0" d="M674,334.2h7.8c5.2,0,9.3,1.7,9.3,6.9c0,5-4.1,7.3-9.1,7.3h-3.2v7.9H674V334.2z M681.6,344.9
				c3.3,0,4.8-1.3,4.8-3.8c0-2.6-1.7-3.4-5-3.4h-2.7v7.3H681.6z"/>
			<path class="st0" d="M696.5,334.2h6.5c7.2,0,11.7,3.5,11.7,11c0,7.4-4.5,11.1-11.4,11.1h-6.7V334.2z M702.7,352.7
				c4.4,0,7.1-2.2,7.1-7.6c0-5.4-2.7-7.4-7.1-7.4h-1.5v15H702.7z"/>
			<path class="st0" d="M718.6,334.2h4.7v22.1h-4.7V334.2z"/>
		</g>
	</g>
	<g>
		<g>
			<path class="st1" d="M94.5,286.2c0,1-0.8,1.8-1.7,1.8H27.6c-0.5,0-1.1-1-0.3-1.8L49.3,264c1.2-1.2,2-1.5,3.4-1.5h38.5
				c3.1,0,3.4,1.4,3.4,3.1V286.2z"/>
			<path class="st1" d="M94.5,357c0,2.9-1.6,3.4-3.3,3.4H34c-0.5,0-1-1-0.3-1.8l22.1-22.2c1.2-1.2,2-1.5,3.4-1.5h32.9
				c2.4,0,2.3,1.4,2.3,3.1V357z"/>
			<path class="st1" d="M28.7,292.2c-1,0-1.7,0.8-1.7,1.8v64c0,0.5,1,1.1,1.7,0.3l21.9-22c1.2-1.2,1.5-2,1.5-3.4v-37.1
				c0-3.1-1.4-3.4-3.1-3.4H28.7z"/>
		</g>
		<path class="st1" d="M320.5,286.2c0,1-0.8,1.8-1.7,1.8h-65.5c-0.5,0-1.1-1-0.3-1.8l21.9-22.2c1.2-1.2,2-1.5,3.4-1.5h38.9
			c3.1,0,3.4,1.4,3.4,3.1V286.2z"/>
		<path class="st1" d="M320.5,357c0,2.9-1.6,3.4-3.3,3.4h-56.7c-0.5,0-1-1-0.3-1.8l22.1-22.1c1.2-1.2,2-1.5,3.4-1.5l32.5-0.1
			c2.4,0,2.3,1.4,2.3,3.1V357z"/>
		<path class="st1" d="M254.7,292.2c-1,0-1.7,0.8-1.7,1.8v64.5c0,0.5,1,1.1,1.7,0.3l22-22c1.2-1.2,1.5-2,1.5-3.4v-37.7
			c0-3.1-1.4-3.4-3.1-3.4H254.7z"/>
		<path class="st1" d="M167.7,286.2c0,1-0.7,1.8-1.7,1.8h-65c-0.5,0-1.1-1-0.3-1.8l22-22.2c1.2-1.2,2-1.5,3.4-1.5h38.2
			c3.1,0,3.4,1.4,3.4,3.1V286.2z"/>
		<path class="st1" d="M167.7,357c0,2.9-1.6,3.4-3.3,3.4h-56.4c-0.5,0-1-1-0.3-1.8l22.2-22.2c1.2-1.2,2-1.5,3.4-1.5h32
			c2.4,0,2.3,1.4,2.3,3.1V357z"/>
		<path class="st1" d="M102.1,292.2c-1,0-1.8,0.8-1.8,1.8v64.6c0,0.5,1,1.1,1.8,0.3l22-22c1.2-1.2,1.5-2,1.5-3.4l-0.1-37.8
			c0-3.1-1.4-3.4-3.1-3.4H102.1z"/>
		<path class="st1" d="M167.7,320.2c0,1.5-1.2,2.7-2.7,2.7h-24.9c-1.5,0-2.7-1.2-2.7-2.7v-17.5c0-1.5,1.2-2.7,2.7-2.7H165
			c1.5,0,2.7,1.2,2.7,2.7V320.2z"/>
		<path class="st2" d="M179.7,336.7c0-1,0.8-1.8,1.7-1.8h64.9c0.5,0,1.1,1,0.3,1.8l-22,22.2c-1.2,1.2-2,1.5-3.4,1.5h-38.2
			c-3.1,0-3.4-1.4-3.4-3.1V336.7z"/>
		<path class="st2" d="M179.7,265.9c0-2.9,1.6-3.4,3.3-3.4h56.4c0.5,0,1,1,0.3,1.8l-22.2,22.2c-1.2,1.2-2,1.5-3.4,1.5H182
			c-2.4,0-2.3-1.4-2.3-3.1V265.9z"/>
		<path class="st2" d="M245.4,330.8c1,0,1.7-0.8,1.7-1.8v-64.6c0-0.5-1-1.1-1.7-0.3l-22,21.9c-1.1,1.2-1.5,2-1.5,3.4v38
			c0,3.1,1.4,3.4,3.1,3.4H245.4z"/>
		<path class="st2" d="M179.7,302.7c0-1.5,1.2-2.7,2.7-2.7h24.9c1.5,0,2.7,1.2,2.7,2.7v17.6c0,1.5-1.2,2.7-2.7,2.7h-24.9
			c-1.5,0-2.7-1.2-2.7-2.7V302.7z"/>
	</g>
</g>
</svg>
