<?xml version="1.0" encoding="utf-8"?>
<!-- Generator: Adobe Illustrator 23.0.1, SVG Export Plug-In . SVG Version: 6.00 Build 0)  -->
<svg version="1.1" id="图层_1" xmlns="http://www.w3.org/2000/svg" xmlns:xlink="http://www.w3.org/1999/xlink" x="0px" y="0px"
	 viewBox="0 0 800 50" style="enable-background:new 0 0 800 50;" xml:space="preserve">
<style type="text/css">
	.st0{fill:#FFFFFF;}
	.st1{fill:#0068B6;}
	.st2{fill:#E50012;}
</style>
<g>
	<g>
		<path class="st0" d="M179.7,6.8v16h-4v-1.6h-7.3v10h-4.1v-10H157V23h-3.9V6.8h11.1V1.3h4.1v5.5H179.7z M164.3,17.5v-6.9H157v6.9
			H164.3z M175.6,17.5v-6.9h-7.3v6.9H175.6z"/>
		<path class="st0" d="M212.5,2.5v28.7h-4.1v-1.6h-19.1v1.6h-3.9V2.5H212.5z M208.4,26.1V6h-19.1v20.1H208.4z M207.3,21.1v3.1h-16.7
			v-3.1h6.5v-3.8h-5.3v-3.2h5.3v-3h-6.1V7.8h15.9v3.3h-6.2v3h5.5v3.2h-1.8c0.9,0.9,1.9,2.1,2.4,2.9l-1.7,0.9H207.3z M200.6,21.1h3.2
			c-0.5-0.9-1.5-2-2.2-2.8l2-1h-3V21.1z"/>
		<path class="st0" d="M228.6,3.2c1.5,2.2,3.1,5,3.6,7l-3.5,1.4c-0.1-0.5-0.3-1-0.5-1.6c-7.8,0.6-9,0.9-9.9,1.2
			c-0.2-0.7-0.8-2.5-1.3-3.6c0.5-0.1,1-0.5,1.6-1.2c0.5-0.6,2-2.9,2.9-5.3l4.1,1.1c-0.9,1.8-2.2,3.7-3.4,5.3l4.7-0.3
			c-0.5-1-1.1-1.9-1.6-2.8L228.6,3.2z M230.6,27.3c0,1.7-0.3,2.6-1.4,3.1c-1.1,0.6-2.6,0.6-4.5,0.6c-0.2-1-0.8-2.5-1.3-3.4
			c1.2,0.1,2.4,0,2.8,0c0.4,0,0.5-0.1,0.5-0.5v-2.1H222v6.1h-3.6V12.8h12.2V27.3z M222,15.9v1.7h4.8v-1.7H222z M226.8,22.3v-1.9H222
			v1.9H226.8z M237.8,15.6c-3.7,0-4.7-1.1-4.7-4.6V1.4h3.8V6c2.2-0.9,4.4-1.8,5.8-2.7l2.5,2.8c-2.5,1.2-5.5,2.2-8.3,3V11
			c0,1.2,0.2,1.3,1.4,1.3h3.5c1.1,0,1.3-0.5,1.4-3.3c0.8,0.6,2.3,1.2,3.4,1.4c-0.4,4.1-1.5,5.3-4.4,5.3H237.8z M242,27.7
			c1.1,0,1.3-0.6,1.5-3.8c0.8,0.5,2.3,1.1,3.4,1.4c-0.4,4.5-1.4,5.8-4.5,5.8h-4.5c-3.8,0-4.7-1.1-4.7-4.6V16.3h3.8v4.3
			c2.3-0.9,4.5-2,6.1-3l2.5,2.8c-2.5,1.3-5.7,2.5-8.6,3.4v2.5c0,1.1,0.2,1.3,1.5,1.3H242z"/>
		<path class="st0" d="M254.3,16.2c-1.1-0.9-3.6-2.3-5.2-3.3l2.2-2.7c1.6,0.8,4.1,2.1,5.4,2.9L254.3,16.2z M257.1,20.5
			c-1.2,3.4-2.7,7.1-4.2,10.3l-3.5-2.1c1.3-2.5,3.2-6.6,4.5-10.3L257.1,20.5z M255.8,7.7c-1.2-0.9-3.6-2.4-5.2-3.4l2.2-2.8
			c1.6,0.9,4.1,2.3,5.4,3.1L255.8,7.7z M272.4,20.7v6.9c0,1.6-0.3,2.5-1.4,3c-1.1,0.5-2.6,0.6-4.6,0.5c-0.2-1-0.6-2.3-1-3.3
			c1.1,0,2.4,0,2.8,0c0.4,0,0.5-0.1,0.5-0.4v-6.8h-5.1V9.1h4.3c0.3-0.9,0.6-1.9,0.8-2.7h-6.2v5.4c0,5.7-0.6,14.1-4.4,19.4
			c-0.7-0.6-2.3-1.6-3.2-2.1c3.6-4.9,3.9-12.2,3.9-17.4V3H279v3.4h-9.5l3.6,0.6c-0.4,0.7-0.8,1.4-1.3,2.1h6.2v11.6H272.4z
			 M267.6,22.9c-1,2.3-2.5,4.9-3.7,6.6c-0.7-0.6-2.2-1.4-3-1.9c1.3-1.5,2.5-3.7,3.3-5.7L267.6,22.9z M267,13.6h7.5v-1.8H267V13.6z
			 M267,18h7.5v-1.8H267V18z M276.6,21.6c1,1.9,2.5,4.5,3.1,6.1l-3.6,1.5c-0.6-1.7-1.9-4.4-2.9-6.4L276.6,21.6z"/>
		<path class="st0" d="M291.9,12.5c-0.4,4.7-1.3,8.6-2.5,11.6c3,2.5,7,3.1,11.7,3.1c1.9,0,8.6,0,10.8-0.1c-0.5,0.8-1.1,2.5-1.4,3.5
			H301c-5.4,0-9.8-0.7-13.2-3.4c-1,1.7-2.2,3-3.6,4c-0.5-0.7-2-2.1-2.8-2.5c1.5-1.1,2.8-2.5,3.8-4.2c-1.1-1.7-2.1-3.7-2.8-6.2
			l2.8-0.9c0.4,1.4,1,2.7,1.6,3.7c0.6-1.6,1-3.5,1.3-5.7H283c1.3-2.4,2.9-5.8,4.3-9h-4.8V3.1h9.9c-1.2,2.9-2.7,6.2-4.1,9h0.8
			l0.6-0.1L291.9,12.5z M298.7,6.7h-5.5V3.8h5.5V1.4h3.6v2.4h7.1v4.3h1.8V11h-1.8v4.3h-7.1v1.5h7.4v2.8h-7.4v1.6h8.5v3h-8.5v2.2
			h-3.6v-2.2h-7.1v-3h7.1v-1.6h-5.8v-2.8h5.8v-1.5h-5.7v-2.9h5.7V11h-7.3V8.1h7.3V6.7z M302.3,6.7v1.4h3.7V6.7H302.3z M306.1,11
			h-3.7v1.4h3.7V11z"/>
		<path class="st0" d="M324.8,20.9c0.3,1,1,2.5,1.5,3.1c-6,5-7,5.9-7.6,6.7c-0.3-0.9-1.3-2.5-1.9-3.2c0.7-0.5,1.6-1.6,1.6-3.1v-9.6
			h-3.8v-3.7h7.6v12.1L324.8,20.9z M321.6,9.2c-1-1.4-3.3-3.7-5-5.2l2.5-2.3c1.7,1.4,4.1,3.5,5.2,4.9L321.6,9.2z M342.8,16
			c-1.2,4-3.1,7-5.6,9.3c2.2,1.2,4.6,2,7.5,2.5c-0.8,0.8-1.9,2.3-2.4,3.4c-3.2-0.8-6-1.9-8.3-3.5c-2.6,1.6-5.6,2.7-8.8,3.4
			c-0.4-1-1.1-2.5-1.7-3.3c2.8-0.5,5.4-1.3,7.6-2.5c-1.8-1.8-3.3-3.8-4.5-6.2l1.3-0.4h-2.3v-3.6h14.2l0.6-0.2L342.8,16z M332,5.9
			c0,3.2-1,6.8-5.6,8.9c-0.5-0.7-1.8-2.2-2.6-2.8c4.1-1.7,4.6-4,4.6-6.2V2.3H340v7c0,0.9,0.1,1.3,0.5,1.3h1.7c0.5,0,1.3-0.1,1.8-0.2
			c0.1,1,0.1,2.3,0.3,3.1c-0.5,0.2-1.3,0.3-2,0.3h-2.1c-3.2,0-3.8-1.3-3.8-4.5V5.8L332,5.9L332,5.9z M330.2,18.7
			c0.9,1.7,2.3,3.3,3.9,4.6c1.5-1.3,2.8-2.8,3.8-4.6H330.2z"/>
		<path class="st0" d="M367.4,24.1c2.9,1.6,6.6,2.9,9.9,3.7c-0.8,0.7-1.9,2.1-2.4,3c-3.8-1.1-7.9-3-11.1-5.3v5.6h-3.8v-5.4
			c-3.2,2.3-7.4,4.2-11.1,5.3c-0.6-0.9-1.7-2.3-2.5-3.1c3.5-0.7,7.3-2.1,10.3-3.7h-9.3v-3h12.6v-1.6h3.8v1.6h12.7v3H367.4z
			 M351.1,10.9c-0.6,0.5-1.2,1-1.7,1.5c-0.6-0.8-1.8-2-2.7-2.5c3.6-2.5,6.2-5.8,7.7-8.6l3.9,0.7c-0.5,0.8-1,1.6-1.5,2.4h5.2
			c-0.3-0.8-0.6-1.6-1-2.3l3.5-1c0.6,1,1.2,2.2,1.6,3.3h9.1v2.9h-9.8v1.3h8.4v2.5h-8.4v1.3h8.4v2.5h-8.4v1.4h10.6v2.9h-20.8V20h-3.8
			V10.9z M361.4,7.3h-6.5v1.3h6.5V7.3z M361.4,11.1h-6.5v1.3h6.5V11.1z M361.4,14.9h-6.5v1.4h6.5V14.9z"/>
		<path class="st0" d="M408.4,2.5v28.7h-4.2v-1.1h-19.3v1.1h-4V2.5H408.4z M404.2,26.7V6h-19.3v20.7H404.2z M403.1,13.8h-3.9v8.1
			c0,1.7-0.3,2.6-1.4,3.2c-1.1,0.6-2.5,0.6-4.5,0.6c-0.2-1-0.7-2.5-1.2-3.4c1.2,0.1,2.5,0.1,2.9,0c0.4,0,0.5-0.1,0.5-0.5v-4.3
			c-2.4,2.4-5.2,4.4-7.7,5.7c-0.5-0.7-1.5-1.9-2.4-2.6c2.9-1.5,6.1-4,8.6-6.9h-7.7v-3.4h9.2V7h3.7v3.5h3.9V13.8z"/>
		<path class="st0" d="M418.3,16.7c-1.3-1-4.1-2.5-6-3.5l2.1-2.8c1.8,0.8,4.6,2.2,6.1,3.1L418.3,16.7z M422.4,20.8
			c-1.7,3.3-3.7,7-5.7,10.1l-3.2-2.6c1.7-2.4,4.2-6.4,6.1-10.1L422.4,20.8z M419.9,8.2c-1.3-1-3.9-2.6-5.7-3.7l2.2-2.7
			c1.8,0.9,4.5,2.5,5.8,3.4L419.9,8.2z M442.3,25.5v3.8h-21.1v-3.8h8.3V7.8H423V4h17.9v3.8h-7.1v17.7H442.3z"/>
		<path class="st0" d="M453.2,19.5c-1.2,2.2-2.8,4.9-4.5,6.8l-3.2-1.9c1.7-1.7,3.5-4.2,4.6-6.4L453.2,19.5z M452.3,7.4h-6.7V3.9h6.7
			V1.3h3.8v2.6h7.6V1.3h3.9v2.6h6.6v3.6h-6.6v3h-3.9v-3h-7.6v3h-3.8V7.4z M471.3,26.5c-0.4-1.6-1.2-4-2.1-6.1
			c-0.4,5.5-0.8,7.9-1.7,8.9c-0.8,1.1-1.8,1.4-3.1,1.5c-1.1,0.2-3,0.1-4.8,0.1c-0.1-1-0.5-2.4-1.1-3.3c1.8,0.1,3.5,0.2,4.2,0.2
			c0.6,0,1-0.1,1.3-0.5c0.7-0.7,1.1-3.8,1.4-10.8h-5.1c-1,6.5-3.6,11.8-12.1,14.9c-0.4-0.9-1.4-2.3-2.2-3c7.4-2.4,9.6-6.6,10.5-11.9
			h-8.6v-3.6h9c0.1-1,0.1-2,0.2-3h3.9c-0.1,1.1-0.1,2.1-0.2,3h8.8c0,0,0,1.2-0.1,1.7c-0.1,1.5-0.1,2.9-0.2,4.1l2.4-0.8
			c1.1,2.3,2.5,5.5,3,7.4L471.3,26.5z"/>
		<path class="st0" d="M503.9,11.9c-0.5-0.9-1.4-2-2.4-3.1c-2.3,2.5-5.4,4.4-8.9,5.9h10.9v16.4h-3.9V30h-12.8v1.2h-3.7V17.5
			c-1.2,0.3-2.4,0.5-3.6,0.7c-0.5-0.9-1.6-2.5-2.4-3.3c4.7-0.6,9.4-1.5,13.3-3V1.3h3.8V10c1.5-0.9,2.8-1.9,3.8-3l3.3,1.5
			c-1.3-1.4-2.7-2.8-4-4l3-1.8c2.5,2.1,5.6,5,7,7.2L503.9,11.9z M488,4c-1.5,3.2-3.8,6.4-6,8.4c-0.7-0.6-2.4-1.7-3.3-2.2
			c2.2-1.7,4.3-4.5,5.5-7.1L488,4z M499.6,17.5h-12.8v1.4h12.8V17.5z M486.8,23.1h12.8v-1.6h-12.8V23.1z M499.6,27.2v-1.6h-12.8v1.6
			H499.6z"/>
		<path class="st0" d="M537.2,22.8c1,0.5,2.2,1,3.1,1.2c-0.5,5-1.7,6.9-5.7,6.9h-6.1c-4.4,0-5.7-1.3-5.7-6.2v-1.8h-6.3v1.9h-4V5.9
			h10.2V1.5h4.1v4.5h10.2V22.8z M516.6,9.6v3.1h6.3V9.6H516.6z M522.8,19.2v-3h-6.3v3H522.8z M527,9.6v3.1h6.3V9.6H527z M527,16.2v3
			h6.3v-3H527z M534.3,27c1.5,0,1.9-0.8,2.2-4.1H527v1.8c0,2,0.2,2.3,2,2.3H534.3z"/>
		<path class="st0" d="M571.1,8c0,0,0,1.3-0.1,1.8c-0.6,12.7-1.3,17.6-2.7,19.2c-1,1.2-1.9,1.6-3.3,1.8c-1.2,0.2-3.2,0.2-5.2,0.1
			c-0.1-1.2-0.6-2.9-1.3-3.9c2,0.2,3.9,0.2,4.8,0.2c0.7,0,1.1-0.1,1.5-0.5c1-1,1.6-5.2,2.1-14.7h-9c-0.5,6.6-2.8,14.4-11.9,19.5
			c-0.6-1-2.1-2.4-3-3.1c8-4.3,10.2-10.8,10.7-16.4h-9.7V8h9.9V1.4h4.1V8H571.1z"/>
		<path class="st0" d="M585.7,20.9c0.3,1,1,2.5,1.5,3.1c-6,5-7,5.9-7.6,6.7c-0.3-0.9-1.3-2.5-1.9-3.2c0.7-0.5,1.6-1.6,1.6-3.1v-9.6
			h-3.8v-3.7h7.6v12.1L585.7,20.9z M582.5,9.2c-1-1.4-3.3-3.7-5-5.2l2.5-2.3c1.7,1.4,4.1,3.5,5.2,4.9L582.5,9.2z M603.7,16
			c-1.2,4-3.1,7-5.6,9.3c2.2,1.2,4.6,2,7.5,2.5c-0.8,0.8-1.9,2.3-2.4,3.4c-3.2-0.8-6-1.9-8.3-3.5c-2.6,1.6-5.6,2.7-8.8,3.4
			c-0.4-1-1.1-2.5-1.7-3.3c2.8-0.5,5.4-1.3,7.6-2.5c-1.8-1.8-3.3-3.8-4.5-6.2l1.3-0.4h-2.3v-3.6h14.2l0.6-0.2L603.7,16z M592.9,5.9
			c0,3.2-1,6.8-5.6,8.9c-0.5-0.7-1.8-2.2-2.6-2.8c4.1-1.7,4.6-4,4.6-6.2V2.3h11.6v7c0,0.9,0.1,1.3,0.5,1.3h1.7
			c0.5,0,1.3-0.1,1.8-0.2c0.1,1,0.1,2.3,0.3,3.1c-0.5,0.2-1.3,0.3-2,0.3h-2.1c-3.2,0-3.8-1.3-3.8-4.5V5.8L592.9,5.9L592.9,5.9z
			 M591.1,18.7c0.9,1.7,2.3,3.3,3.9,4.6c1.5-1.3,2.8-2.8,3.8-4.6H591.1z"/>
		<path class="st0" d="M620,21.2c0.2,1.1,0.8,2.7,1.2,3.5c-6.5,4.6-7.7,5.6-8.3,6.4c-0.3-1-1.3-2.7-1.9-3.6c0.7-0.5,1.7-1.5,1.7-3
			v-9.6h-4.7v-3.8h8.6v12.3L620,21.2z M615.9,9.1c-1.1-1.4-3.5-3.6-5.3-5.1l2.4-2.4c1.8,1.4,4.3,3.4,5.4,4.7L615.9,9.1z M638,15.3
			h-7.4v15.9h-4.1V15.3h-7.7v-4h7.7V1.4h4.1v9.9h7.4V15.3z"/>
		<path class="st0" d="M651.9,3.8c-0.8,2.7-1.9,5.9-2.8,8.4c1.9,2.5,2.4,4.8,2.4,6.6c0,2.1-0.4,3.5-1.5,4.2
			c-0.5,0.4-1.1,0.6-1.8,0.7c-0.6,0.1-1.3,0.1-2.1,0.1c0-0.9-0.3-2.3-0.8-3.3c0.5,0,1,0.1,1.4,0c0.3,0,0.6-0.1,0.9-0.3
			c0.4-0.3,0.5-1,0.5-1.9c0-1.5-0.4-3.6-2.2-5.9c0.6-1.9,1.3-4.5,1.8-6.6H645v25.2h-3.4V2.5h7.1l0.5-0.2L651.9,3.8z M667,27.6
			c0.5,0,0.6-0.5,0.7-3.8c0.7,0.6,2.2,1.2,3.1,1.4c-0.3,4.4-1.2,5.6-3.5,5.6h-2.2c-2.8,0-3.5-1.1-3.5-4.3V20h-2.1
			c-0.5,5.4-2,9.1-8.2,11.2c-0.4-1-1.4-2.3-2.1-3.1c5.1-1.6,6.3-4.2,6.7-8.2H652v-3.4h18.4V20h-5.1v6.6c0,0.9,0.1,1,0.5,1H667z
			 M654.4,11.4h-2.5V5h7.5c-0.4-1-0.8-2.1-1.3-3l3.6-1c0.7,1.2,1.5,2.9,1.8,4.1h6.7v6.3h-2.6v2.9h-13.3V11.4z M655.5,8.3v2.6h11.1
			V8.3H655.5z"/>
		<path class="st0" d="M685.3,8.7c-0.4,0.9-0.8,1.7-1.3,2.5h15v15.8c0,1.9-0.4,2.9-1.7,3.5c-1.3,0.6-3.1,0.6-5.7,0.6
			c-0.2-1.1-0.7-2.7-1.2-3.7c1.6,0.1,3.5,0.1,4.1,0.1c0.5,0,0.7-0.2,0.7-0.6v-1.9h-11.7v6.1h-3.8V17.2c-1.3,1.4-2.7,2.7-4.3,3.7
			c-0.5-0.8-1.8-2.2-2.5-2.9c3.4-2.3,6.1-5.6,8-9.4h-7.1V5.1h8.7c0.5-1.3,0.9-2.6,1.3-3.9l4,0.9c-0.3,1-0.6,2-1,3h15.8v3.6H685.3z
			 M695.2,14.6h-11.7v2.1h11.7V14.6z M695.2,21.9v-2.1h-11.7v2.1H695.2z"/>
		<path class="st0" d="M717.9,3.8c-0.8,2.7-1.9,5.9-2.8,8.4c1.9,2.5,2.3,4.8,2.3,6.7c0,2.1-0.4,3.4-1.5,4.2
			c-0.5,0.4-1.1,0.6-1.8,0.7c-0.6,0.1-1.4,0.1-2.1,0.1c0-0.9-0.3-2.3-0.8-3.3c0.5,0,1,0.1,1.4,0c0.3,0,0.6-0.1,0.9-0.3
			c0.4-0.3,0.6-1,0.6-1.9c0-1.6-0.4-3.6-2.3-5.9c0.6-2,1.3-4.5,1.8-6.7h-3.1v25.2h-3.4V2.5h7.7l0.5-0.2L717.9,3.8z M735.3,20.3
			c-1.4,1.1-3.1,2.3-4.5,3.2c1.4,1.8,3.1,3.3,5.2,4.3c-0.8,0.7-2,2.2-2.6,3.3c-4.8-2.6-7.4-7.6-8.9-13.8h-1.9v9l4.5-1
			c0,1.1,0,2.7,0.2,3.5c-6.3,1.6-7.5,2.1-8.3,2.6c-0.3-0.8-1.1-2.3-1.6-3c0.7-0.4,1.5-1.3,1.5-2.8v-23h14.6v14.7h-5.6
			c0.4,1.2,0.8,2.4,1.3,3.5c1.3-1,2.7-2.2,3.7-3.2L735.3,20.3z M722.6,5.8v2.5h7.1V5.8H722.6z M722.6,14h7.1v-2.6h-7.1V14z"/>
		<path class="st0" d="M751.1,3.2c-2.1,5.2-5.5,10.2-8.9,13.3c-0.8-0.7-2.6-2.1-3.6-2.7c3.5-2.7,6.6-7.1,8.3-11.8L751.1,3.2z
			 M760.1,18.1c2.7,3.5,5.7,8.1,7.3,11.1l-3.8,2.1c-0.5-1.1-1.2-2.3-2-3.7c-15.6,1.3-17.8,1.4-19.4,2c-0.2-0.8-0.9-2.9-1.5-4
			c1.1-0.3,1.8-1.1,3-2.5c1.4-1.4,5.3-6.9,7.7-12.3l4.3,1.8c-2.4,4.4-5.4,8.7-8.4,12.2l12-0.8c-1-1.4-2-2.9-2.9-4.2L760.1,18.1z
			 M759.5,1.8c1.9,4,5.8,8.6,9,11.4c-1,0.7-2.5,2.2-3.2,3.3c-3.3-3.3-7.1-8.5-9.6-13.2L759.5,1.8z"/>
		<path class="st0" d="M799,26.4c0,2.2-0.4,3.3-1.8,4c-1.3,0.7-3.4,0.8-6.3,0.7c-0.1-1.1-0.7-3-1.3-4.1c1.8,0.1,3.9,0.1,4.6,0.1
			c0.6,0,0.8-0.2,0.8-0.7V6.8h-22.5V3.2H799V26.4z M791.8,12.4h-19V9.1h19V12.4z M778.2,25.6v2.3h-3.7V14.8h15.7v10.8H778.2z
			 M778.2,18.1v4.3h8.1v-4.3H778.2z"/>
	</g>
</g>
<g>
	<g>
		<path class="st0" d="M153.2,42.6c0-3.2,2.2-5.1,4.9-5.1c1.3,0,2.4,0.6,3.1,1.3L160,40c-0.5-0.5-1.1-0.8-1.9-0.8
			c-1.6,0-2.8,1.3-2.8,3.4c0,2.1,1.1,3.4,2.7,3.4c0.9,0,1.6-0.4,2.2-1l1.1,1.2c-0.9,0.9-2,1.4-3.4,1.4
			C155.3,47.7,153.2,45.9,153.2,42.6z"/>
		<path class="st0" d="M163.2,37.7h2.1v3.9h4v-3.9h2.1v9.8h-2.1v-4.3h-4v4.3h-2.1V37.7z"/>
		<path class="st0" d="M174.1,37.7h2.1v9.8h-2.1V37.7z"/>
		<path class="st0" d="M178.9,37.7h2.1l3.1,5.2l1.1,2.1h0.1c-0.1-1-0.3-2.3-0.3-3.4v-3.9h2v9.8h-2.1l-3-5.3l-1.1-2.1h-0.1
			c0.1,1.1,0.3,2.3,0.3,3.4v3.9h-2V37.7z"/>
		<path class="st0" d="M194.6,45h-3.4l-0.7,2.5h-2.1l3.4-9.8h2.5l3.4,9.8h-2.2L194.6,45z M194.1,43.5l-0.3-1.1
			c-0.3-1-0.6-2.2-0.9-3.2h-0.1c-0.3,1.1-0.6,2.2-0.9,3.2l-0.3,1.1H194.1z"/>
		<path class="st0" d="M202.3,37.7h6.4v1.6h-4.3v2.3h3.7v1.6h-3.7v2.6h4.5v1.6h-6.6V37.7z"/>
		<path class="st0" d="M211.1,37.7h2.1l3.1,5.2l1.1,2.1h0.1c-0.1-1-0.3-2.3-0.3-3.4v-3.9h2v9.8H217l-3-5.3l-1.1-2.1h-0.1
			c0.1,1.1,0.3,2.3,0.3,3.4v3.9h-2V37.7z"/>
		<path class="st0" d="M221.9,37.7h6.4v1.6H224v2.3h3.7v1.6H224v2.6h4.5v1.6h-6.6V37.7z"/>
		<path class="st0" d="M236.5,47.5l-2.2-3.7h-1.5v3.7h-2.1v-9.8h3.7c2.2,0,3.9,0.7,3.9,3c0,1.5-0.8,2.4-2,2.8l2.5,4H236.5z
			 M232.9,42.3h1.4c1.3,0,2.1-0.5,2.1-1.6c0-1.1-0.7-1.4-2.1-1.4h-1.4V42.3z"/>
		<path class="st0" d="M240.1,42.6c0-3.2,2.2-5.1,5-5.1c1.5,0,2.6,0.6,3.3,1.3l-1.1,1.2c-0.5-0.5-1.1-0.8-2.1-0.8
			c-1.7,0-3,1.3-3,3.4c0,2.1,1.1,3.4,3.1,3.4c0.5,0,1-0.1,1.3-0.4v-1.9h-1.9v-1.6h3.7v4.4c-0.7,0.7-1.9,1.2-3.4,1.2
			C242.3,47.7,240.1,45.9,240.1,42.6z"/>
		<path class="st0" d="M252.7,43.9l-3.2-6.2h2.2l1.1,2.4c0.3,0.7,0.6,1.4,0.9,2.2h0.1c0.3-0.8,0.6-1.4,0.9-2.2l1.1-2.4h2.2l-3.2,6.2
			v3.6h-2.1V43.9z"/>
		<path class="st0" d="M262.7,37.7h6.4v1.6h-4.3v2.3h3.7v1.6h-3.7v2.6h4.5v1.6h-6.6V37.7z"/>
		<path class="st0" d="M271.6,37.7h2.1l3.1,5.2l1.1,2.1h0.1c-0.1-1-0.3-2.3-0.3-3.4v-3.9h2v9.8h-2.1l-3-5.3l-1.1-2.1h-0.1
			c0.1,1.1,0.3,2.3,0.3,3.4v3.9h-2V37.7z"/>
		<path class="st0" d="M281.8,42.6c0-3.2,2.2-5.1,5-5.1c1.5,0,2.6,0.6,3.3,1.3L289,40c-0.5-0.5-1.1-0.8-2.1-0.8c-1.7,0-3,1.3-3,3.4
			c0,2.1,1.1,3.4,3.1,3.4c0.5,0,1-0.1,1.3-0.4v-1.9h-1.9v-1.6h3.7v4.4c-0.7,0.7-1.9,1.2-3.4,1.2C284,47.7,281.8,45.9,281.8,42.6z"/>
		<path class="st0" d="M292.7,37.7h2.1v9.8h-2.1V37.7z"/>
		<path class="st0" d="M297.5,37.7h2.1l3.1,5.2l1.1,2.1h0.1c-0.1-1-0.3-2.3-0.3-3.4v-3.9h2v9.8h-2.1l-3-5.3l-1.1-2.1h-0.1
			c0.1,1.1,0.3,2.3,0.3,3.4v3.9h-2V37.7z"/>
		<path class="st0" d="M308.3,37.7h6.4v1.6h-4.3v2.3h3.7v1.6h-3.7v2.6h4.5v1.6h-6.6V37.7z"/>
		<path class="st0" d="M317.1,37.7h6.4v1.6h-4.3v2.3h3.7v1.6h-3.7v2.6h4.5v1.6h-6.6V37.7z"/>
		<path class="st0" d="M331.7,47.5l-2.2-3.7h-1.5v3.7H326v-9.8h3.7c2.2,0,3.9,0.7,3.9,3c0,1.5-0.8,2.4-2,2.8l2.5,4H331.7z
			 M328.1,42.3h1.4c1.3,0,2.1-0.5,2.1-1.6c0-1.1-0.7-1.4-2.1-1.4h-1.4V42.3z"/>
		<path class="st0" d="M335.8,37.7h2.1v9.8h-2.1V37.7z"/>
		<path class="st0" d="M340.7,37.7h2.1l3.1,5.2l1.1,2.1h0.1c-0.1-1-0.3-2.3-0.3-3.4v-3.9h2v9.8h-2.1l-3-5.3l-1.1-2.1h-0.1
			c0.1,1.1,0.3,2.3,0.3,3.4v3.9h-2V37.7z"/>
		<path class="st0" d="M350.9,42.6c0-3.2,2.2-5.1,5-5.1c1.5,0,2.6,0.6,3.3,1.3l-1.1,1.2c-0.5-0.5-1.1-0.8-2.1-0.8
			c-1.7,0-3,1.3-3,3.4c0,2.1,1.1,3.4,3.1,3.4c0.5,0,1-0.1,1.3-0.4v-1.9h-1.9v-1.6h3.7v4.4c-0.7,0.7-1.9,1.2-3.4,1.2
			C353.1,47.7,350.9,45.9,350.9,42.6z"/>
		<path class="st0" d="M364.6,42.6c0-3.2,2.2-5.1,5-5.1c1.5,0,2.6,0.6,3.3,1.3l-1.1,1.2c-0.5-0.5-1.1-0.8-2.1-0.8
			c-1.7,0-3,1.3-3,3.4c0,2.1,1.1,3.4,3.1,3.4c0.5,0,1-0.1,1.3-0.4v-1.9h-1.9v-1.6h3.7v4.4c-0.7,0.7-1.9,1.2-3.4,1.2
			C366.8,47.7,364.6,45.9,364.6,42.6z"/>
		<path class="st0" d="M381.2,47.5l-2.2-3.7h-1.5v3.7h-2.1v-9.8h3.7c2.2,0,3.9,0.7,3.9,3c0,1.5-0.8,2.4-2,2.8l2.5,4H381.2z
			 M377.5,42.3h1.4c1.3,0,2.1-0.5,2.1-1.6c0-1.1-0.7-1.4-2.1-1.4h-1.4V42.3z"/>
		<path class="st0" d="M384.7,42.6c0-3.2,1.9-5.1,4.7-5.1s4.7,1.9,4.7,5.1c0,3.2-1.9,5.1-4.7,5.1S384.7,45.8,384.7,42.6z M392,42.6
			c0-2.1-1-3.4-2.6-3.4s-2.6,1.3-2.6,3.4c0,2.1,1,3.4,2.6,3.4S392,44.7,392,42.6z"/>
		<path class="st0" d="M396.3,43.1v-5.4h2.1v5.6c0,2,0.8,2.7,2,2.7c1.2,0,2-0.7,2-2.7v-5.6h2v5.4c0,3.3-1.5,4.6-4.1,4.6
			C397.8,47.7,396.3,46.4,396.3,43.1z"/>
		<path class="st0" d="M407.1,37.7h3.5c2.3,0,4.1,0.8,4.1,3.1c0,2.2-1.8,3.3-4.1,3.3h-1.4v3.5h-2.1V37.7z M410.5,42.5
			c1.4,0,2.1-0.6,2.1-1.7c0-1.1-0.8-1.5-2.2-1.5h-1.2v3.2H410.5z"/>
		<path class="st0" d="M419.1,45.9l1.5-1.1c0.4,0.8,1,1.1,1.7,1.1c1,0,1.5-0.5,1.5-1.9v-6.9h2.2v7c0,2-1.1,3.6-3.4,3.6
			C420.9,47.7,419.9,47.1,419.1,45.9z"/>
		<path class="st0" d="M428.8,37.1h2.2v10.4h-2.2V37.1z"/>
		<path class="st0" d="M439.1,44.9h-3.6l-0.8,2.7h-2.3l3.6-10.4h2.6l3.6,10.4h-2.3L439.1,44.9z M438.7,43.2l-0.3-1.1
			c-0.3-1.1-0.6-2.3-1-3.4h-0.1c-0.3,1.1-0.6,2.3-0.9,3.4l-0.3,1.1H438.7z"/>
		<path class="st0" d="M443.7,37.1h2.3l3.2,5.5l1.1,2.2h0.1c-0.1-1.1-0.3-2.5-0.3-3.6v-4.1h2.1v10.4h-2.3l-3.2-5.6l-1.1-2.2h-0.1
			c0.1,1.1,0.3,2.4,0.3,3.6v4.2h-2.1V37.1z"/>
		<path class="st0" d="M454.5,42.4c0-3.4,2.4-5.4,5.3-5.4c1.6,0,2.7,0.6,3.4,1.3l-1.2,1.3c-0.5-0.5-1.2-0.9-2.2-0.9
			c-1.8,0-3.1,1.3-3.1,3.6c0,2.3,1.1,3.6,3.3,3.6c0.5,0,1.1-0.1,1.4-0.4v-2.1h-2v-1.7h3.9v4.7c-0.8,0.7-2.1,1.2-3.6,1.2
			C456.8,47.7,454.5,45.8,454.5,42.4z"/>
		<path class="st0" d="M465.3,46.2l1.3-1.4c0.8,0.7,1.8,1.2,2.8,1.2c1.2,0,1.8-0.5,1.8-1.2c0-0.8-0.7-1-1.7-1.4l-1.5-0.6
			c-1.1-0.4-2.3-1.3-2.3-2.8c0-1.7,1.6-3,3.8-3c1.3,0,2.6,0.5,3.5,1.3l-1.1,1.3c-0.7-0.5-1.4-0.9-2.4-0.9c-1,0-1.6,0.4-1.6,1.1
			c0,0.7,0.8,1,1.7,1.4l1.5,0.6c1.4,0.5,2.2,1.3,2.2,2.8c0,1.7-1.5,3.1-4.1,3.1C467.8,47.7,466.3,47.2,465.3,46.2z"/>
		<path class="st0" d="M475.4,42.8v-5.7h2.2V43c0,2.2,0.8,2.9,2.1,2.9c1.3,0,2.2-0.7,2.2-2.9v-5.9h2.1v5.7c0,3.5-1.6,4.9-4.3,4.9
			C477.1,47.7,475.4,46.3,475.4,42.8z"/>
		<path class="st0" d="M490.4,37.1h3.6c2.5,0,4.4,0.8,4.4,3.3c0,2.4-1.9,3.4-4.3,3.4h-1.5v3.7h-2.2V37.1z M494,42.2
			c1.5,0,2.3-0.6,2.3-1.8c0-1.2-0.8-1.6-2.3-1.6h-1.3v3.4H494z"/>
		<path class="st0" d="M500,42.3c0-3.4,2-5.4,5-5.4c2.9,0,5,2,5,5.4c0,3.4-2,5.4-5,5.4C502.1,47.7,500,45.7,500,42.3z M507.7,42.3
			c0-2.2-1.1-3.6-2.7-3.6s-2.7,1.3-2.7,3.6c0,2.2,1.1,3.6,2.7,3.6S507.7,44.5,507.7,42.3z"/>
		<path class="st0" d="M511.2,37.1h2.3l0.9,5.1c0.2,1.1,0.3,2.2,0.5,3.3h0.1c0.2-1.1,0.5-2.2,0.7-3.3l1.3-5.1h1.9l1.3,5.1
			c0.2,1.1,0.5,2.2,0.7,3.3h0.1c0.2-1.1,0.3-2.2,0.5-3.3l0.9-5.1h2.1l-2.1,10.4h-2.8l-1.2-5.1c-0.2-0.8-0.3-1.6-0.5-2.4h-0.1
			c-0.2,0.8-0.3,1.6-0.5,2.4l-1.2,5.1h-2.7L511.2,37.1z"/>
		<path class="st0" d="M526.1,37.1h6.8v1.7h-4.6v2.4h3.9V43h-3.9v2.8h4.8v1.7h-7V37.1z"/>
		<path class="st0" d="M541.6,47.5l-2.3-3.9h-1.5v3.9h-2.2V37.1h3.9c2.3,0,4.2,0.8,4.2,3.1c0,1.6-0.8,2.5-2.1,3l2.6,4.3H541.6z
			 M537.7,41.9h1.4c1.4,0,2.2-0.6,2.2-1.7c0-1.1-0.8-1.5-2.2-1.5h-1.4V41.9z"/>
		<path class="st0" d="M549.4,37.1h3c3.4,0,5.5,1.6,5.5,5.2c0,3.5-2.1,5.2-5.4,5.2h-3.2V37.1z M552.4,45.9c2.1,0,3.4-1,3.4-3.6
			c0-2.5-1.3-3.5-3.4-3.5h-0.7v7.1H552.4z"/>
		<path class="st0" d="M560.3,37.1h6.8v1.7h-4.6v2.4h3.9V43h-3.9v2.8h4.8v1.7h-7V37.1z"/>
		<path class="st0" d="M569,46.2l1.3-1.4c0.8,0.7,1.8,1.2,2.8,1.2c1.2,0,1.8-0.5,1.8-1.2c0-0.8-0.7-1-1.7-1.4l-1.5-0.6
			c-1.1-0.4-2.3-1.3-2.3-2.8c0-1.7,1.6-3,3.8-3c1.3,0,2.6,0.5,3.5,1.3l-1.1,1.3c-0.7-0.5-1.4-0.9-2.4-0.9c-1,0-1.6,0.4-1.6,1.1
			c0,0.7,0.8,1,1.7,1.4l1.5,0.6c1.4,0.5,2.2,1.3,2.2,2.8c0,1.7-1.5,3.1-4.1,3.1C571.5,47.7,570,47.2,569,46.2z"/>
		<path class="st0" d="M579.2,37.1h2.2v10.4h-2.2V37.1z"/>
		<path class="st0" d="M583.7,42.4c0-3.4,2.4-5.4,5.3-5.4c1.6,0,2.7,0.6,3.4,1.3l-1.2,1.3c-0.5-0.5-1.2-0.9-2.2-0.9
			c-1.8,0-3.1,1.3-3.1,3.6c0,2.3,1.1,3.6,3.3,3.6c0.5,0,1.1-0.1,1.4-0.4v-2.1h-2v-1.7h3.9v4.7c-0.8,0.7-2.1,1.2-3.6,1.2
			C586,47.7,583.7,45.8,583.7,42.4z"/>
		<path class="st0" d="M595.2,37.1h2.3l3.2,5.5l1.1,2.2h0.1c-0.1-1.1-0.3-2.5-0.3-3.6v-4.1h2.1v10.4h-2.3l-3.2-5.6l-1.1-2.2H597
			c0.1,1.1,0.3,2.4,0.3,3.6v4.2h-2.1V37.1z"/>
		<path class="st0" d="M610.2,37.1h2.2v10.4h-2.2V37.1z"/>
		<path class="st0" d="M615.3,37.1h2.3l3.2,5.5l1.1,2.2h0.1c-0.1-1.1-0.3-2.5-0.3-3.6v-4.1h2.1v10.4h-2.3l-3.2-5.6l-1.1-2.2h-0.1
			c0.1,1.1,0.3,2.4,0.3,3.6v4.2h-2.1V37.1z"/>
		<path class="st0" d="M625.9,46.2l1.3-1.4c0.8,0.7,1.8,1.2,2.8,1.2c1.2,0,1.8-0.5,1.8-1.2c0-0.8-0.7-1-1.7-1.4l-1.5-0.6
			c-1.1-0.4-2.3-1.3-2.3-2.8c0-1.7,1.6-3,3.8-3c1.3,0,2.6,0.5,3.5,1.3l-1.1,1.3c-0.7-0.5-1.4-0.9-2.4-0.9c-1,0-1.6,0.4-1.6,1.1
			c0,0.7,0.8,1,1.7,1.4l1.5,0.6c1.4,0.5,2.2,1.3,2.2,2.8c0,1.7-1.5,3.1-4.1,3.1C628.5,47.7,627,47.2,625.9,46.2z"/>
		<path class="st0" d="M638,38.9h-3.1v-1.7h8.5v1.7h-3.2v8.7H638V38.9z"/>
		<path class="st0" d="M645.3,37.1h2.2v10.4h-2.2V37.1z"/>
		<path class="st0" d="M652.6,38.9h-3.1v-1.7h8.5v1.7h-3.2v8.7h-2.2V38.9z"/>
		<path class="st0" d="M659.9,42.8v-5.7h2.2V43c0,2.2,0.8,2.9,2.1,2.9c1.3,0,2.2-0.7,2.2-2.9v-5.9h2.1v5.7c0,3.5-1.6,4.9-4.3,4.9
			C661.5,47.7,659.9,46.3,659.9,42.8z"/>
		<path class="st0" d="M673.5,38.9h-3.1v-1.7h8.5v1.7h-3.2v8.7h-2.2V38.9z"/>
		<path class="st0" d="M680.9,37.1h6.8v1.7h-4.6v2.4h3.9V43h-3.9v2.8h4.8v1.7h-7V37.1z"/>
		<path class="st0" d="M693.2,42.4c0-3.4,2.4-5.4,5.2-5.4c1.4,0,2.5,0.6,3.3,1.3l-1.2,1.3c-0.6-0.5-1.2-0.9-2-0.9
			c-1.7,0-2.9,1.3-2.9,3.6c0,2.3,1.1,3.6,2.9,3.6c0.9,0,1.7-0.4,2.3-1l1.2,1.3c-0.9,1-2.1,1.5-3.5,1.5
			C695.5,47.7,693.2,45.8,693.2,42.4z"/>
		<path class="st0" d="M702.7,42.3c0-3.4,2-5.4,5-5.4c2.9,0,5,2,5,5.4c0,3.4-2,5.4-5,5.4C704.7,47.7,702.7,45.7,702.7,42.3z
			 M710.3,42.3c0-2.2-1.1-3.6-2.7-3.6c-1.7,0-2.7,1.3-2.7,3.6c0,2.2,1.1,3.6,2.7,3.6C709.3,45.9,710.3,44.5,710.3,42.3z"/>
		<path class="st0" d="M714.6,46.4c0-0.8,0.6-1.3,1.4-1.3c0.8,0,1.4,0.6,1.4,1.3c0,0.8-0.6,1.3-1.4,1.3
			C715.2,47.7,714.6,47.1,714.6,46.4z"/>
		<path class="st0" d="M719.4,49.4c1.2-0.4,1.8-1.1,1.8-1.9c0,0-0.1,0-0.1,0c-0.7,0-1.4-0.4-1.4-1.2c0-0.7,0.6-1.2,1.4-1.2
			c1,0,1.6,0.8,1.6,2c0,1.6-1,2.9-2.8,3.5L719.4,49.4z"/>
		<path class="st0" d="M728.5,37.1h2.2v8.7h4.5v1.7h-6.7V37.1z"/>
		<path class="st0" d="M737.5,38.9h-3.1v-1.7h8.5v1.7h-3.2v8.7h-2.2V38.9z"/>
		<path class="st0" d="M744.8,37.1h3c3.4,0,5.5,1.6,5.5,5.2c0,3.5-2.1,5.2-5.4,5.2h-3.2V37.1z M747.7,45.9c2.1,0,3.4-1,3.4-3.6
			c0-2.5-1.3-3.5-3.4-3.5h-0.7v7.1H747.7z"/>
		<path class="st0" d="M755.4,46.4c0-0.8,0.6-1.3,1.4-1.3c0.8,0,1.4,0.6,1.4,1.3c0,0.8-0.6,1.3-1.4,1.3
			C756,47.7,755.4,47.1,755.4,46.4z"/>
	</g>
</g>
<g>
	<g>
		<path class="st1" d="M33.1,12.7c0,0.5-0.4,0.8-0.8,0.8H1.6c-0.3,0-0.5-0.5-0.1-0.8L11.8,2.3c0.5-0.6,0.9-0.7,1.6-0.7h18.1
			c1.4,0,1.6,0.7,1.6,1.5V12.7z"/>
		<path class="st1" d="M33.1,46c0,1.4-0.8,1.6-1.5,1.6H4.7c-0.2,0-0.5-0.5-0.1-0.8l10.4-10.4c0.5-0.6,0.9-0.7,1.6-0.7H32
			c1.1,0,1.1,0.7,1.1,1.5V46z"/>
		<path class="st1" d="M2.1,15.5c-0.5,0-0.8,0.4-0.8,0.8v30.1c0,0.2,0.5,0.5,0.8,0.1l10.3-10.4c0.6-0.5,0.7-0.9,0.7-1.6V17.1
			c0-1.5-0.6-1.6-1.5-1.6H2.1z"/>
	</g>
	<path class="st1" d="M139.3,12.7c0,0.5-0.4,0.8-0.8,0.8h-30.8c-0.2,0-0.5-0.5-0.1-0.8l10.3-10.4c0.6-0.6,0.9-0.7,1.6-0.7h18.3
		c1.4,0,1.6,0.7,1.6,1.5V12.7z"/>
	<path class="st1" d="M139.3,46c0,1.4-0.8,1.6-1.5,1.6h-26.6c-0.2,0-0.5-0.5-0.1-0.8l10.4-10.4c0.5-0.6,0.9-0.7,1.6-0.7l15.3,0
		c1.1,0,1.1,0.7,1.1,1.5V46z"/>
	<path class="st1" d="M108.4,15.5c-0.5,0-0.8,0.4-0.8,0.8v30.3c0,0.2,0.5,0.5,0.8,0.1l10.3-10.3c0.5-0.5,0.7-0.9,0.7-1.6V17.1
		c0-1.5-0.6-1.6-1.5-1.6H108.4z"/>
	<path class="st1" d="M67.5,12.7c0,0.5-0.3,0.8-0.8,0.8H36.1c-0.2,0-0.5-0.5-0.1-0.8L46.4,2.3c0.5-0.6,0.9-0.7,1.6-0.7h18
		c1.5,0,1.6,0.7,1.6,1.5V12.7z"/>
	<path class="st1" d="M67.5,46c0,1.4-0.8,1.6-1.5,1.6H39.5c-0.2,0-0.5-0.5-0.1-0.8l10.4-10.4c0.6-0.6,0.9-0.7,1.6-0.7h15
		c1.1,0,1.1,0.7,1.1,1.5V46z"/>
	<path class="st1" d="M36.6,15.5c-0.5,0-0.8,0.4-0.8,0.8v30.4c0,0.2,0.5,0.5,0.8,0.1L47,36.5c0.5-0.5,0.7-0.9,0.7-1.6l0-17.8
		c0-1.5-0.6-1.6-1.4-1.6H36.6z"/>
	<path class="st1" d="M67.5,28.7c0,0.7-0.6,1.3-1.3,1.3H54.6c-0.7,0-1.3-0.6-1.3-1.3v-8.2c0-0.7,0.6-1.3,1.3-1.3h11.7
		c0.7,0,1.3,0.6,1.3,1.3V28.7z"/>
	<path class="st2" d="M73.2,36.4c0-0.5,0.4-0.8,0.8-0.8h30.5c0.3,0,0.5,0.5,0.2,0.8L94.3,46.9c-0.6,0.6-0.9,0.7-1.6,0.7h-18
		c-1.5,0-1.6-0.7-1.6-1.5V36.4z"/>
	<path class="st2" d="M73.2,3.2c0-1.4,0.8-1.6,1.5-1.6h26.5c0.2,0,0.5,0.5,0.1,0.8L90.9,12.8c-0.5,0.5-0.9,0.7-1.6,0.7H74.2
		c-1.1,0-1.1-0.7-1.1-1.5V3.2z"/>
	<path class="st2" d="M104,33.6c0.4,0,0.8-0.4,0.8-0.8V2.4c0-0.2-0.5-0.5-0.8-0.1L93.7,12.6c-0.5,0.5-0.7,0.9-0.7,1.6V32
		c0,1.5,0.6,1.6,1.4,1.6H104z"/>
	<path class="st2" d="M73.2,20.5c0-0.7,0.6-1.3,1.3-1.3h11.7c0.7,0,1.3,0.6,1.3,1.3v8.3c0,0.7-0.6,1.3-1.3,1.3H74.4
		c-0.7,0-1.3-0.6-1.3-1.3V20.5z"/>
</g>
</svg>
