<svg id="图层_1" data-name="图层 1" xmlns="http://www.w3.org/2000/svg" viewBox="0 0 244.45 34.17"><defs><style>.cls-1{fill:#fff;}.cls-2{fill:#e50012;}</style></defs><title>未标题-1</title><path class="cls-1" d="M132.89,18.39v9.34h-2.36v-.94h-4.26v5.84h-2.38V26.79h-4.24v1h-2.26V18.39h6.5V15.15h2.38v3.24Zm-9,6.21v-4h-4.24v4Zm6.64,0v-4h-4.26v4Z" transform="translate(-5 -14.65)"/><path class="cls-1" d="M152.08,15.88V32.63h-2.4v-.94H138.51v.94h-2.28V15.88Zm-2.4,13.76V17.92H138.51V29.64ZM149,26.73v1.82h-9.77V26.73H143v-2.2h-3.11V22.66H143V20.9h-3.58V19h9.26V20.9h-3.61v1.76h3.19v1.87h-1a14.72,14.72,0,0,1,1.41,1.66l-1,.54Zm-3.91,0H147a14.41,14.41,0,0,0-1.28-1.62l1.15-.58h-1.76Z" transform="translate(-5 -14.65)"/><path class="cls-1" d="M161.45,16.29a15.61,15.61,0,0,1,2.13,4.12l-2,.8a4.73,4.73,0,0,0-.3-.93c-4.54.37-5.28.5-5.77.69a19.45,19.45,0,0,0-.75-2.08,1.77,1.77,0,0,0,.92-.73,14.38,14.38,0,0,0,1.7-3.06l2.38.61a18.41,18.41,0,0,1-2,3.07l2.75-.17c-.28-.56-.62-1.12-.92-1.62Zm1.19,14.07c0,1-.19,1.52-.83,1.84a5.62,5.62,0,0,1-2.62.37,8.59,8.59,0,0,0-.74-2,14.72,14.72,0,0,0,1.66,0c.23,0,.3-.06.3-.28V29.07H157.6v3.54h-2.07V21.87h7.11Zm-5-6.66v1h2.81v-1Zm2.81,3.73V26.34H157.6v1.09Zm6.42-3.91c-2.19,0-2.74-.64-2.74-2.68V15.21h2.23V17.9a25.91,25.91,0,0,0,3.41-1.57l1.44,1.61a34.67,34.67,0,0,1-4.85,1.76v1.1c0,.68.11.75.83.75h2c.63,0,.74-.28.83-1.91a5.89,5.89,0,0,0,2,.81c-.25,2.39-.85,3.07-2.57,3.07Zm2.49,7c.66,0,.77-.35.86-2.22a7.68,7.68,0,0,0,2,.8c-.23,2.62-.83,3.37-2.63,3.37h-2.64c-2.2,0-2.77-.66-2.77-2.7V23.93h2.23v2.52a19.47,19.47,0,0,0,3.54-1.74l1.47,1.63a32.28,32.28,0,0,1-5,2V29.8c0,.66.13.75.86.75Z" transform="translate(-5 -14.65)"/><path class="cls-1" d="M180.25,21.68a23.2,23.2,0,0,1-1.47,6.79c1.74,1.48,4.08,1.8,6.85,1.82,1.09,0,5,0,6.28-.06a7.16,7.16,0,0,0-.79,2h-5.55c-3.17,0-5.75-.41-7.69-2a8.33,8.33,0,0,1-2.08,2.34,7,7,0,0,0-1.62-1.46,7.56,7.56,0,0,0,2.25-2.47,13.49,13.49,0,0,1-1.66-3.63l1.64-.54a9.08,9.08,0,0,0,.92,2.17,16.73,16.73,0,0,0,.74-3.31h-3c.75-1.39,1.71-3.39,2.51-5.26h-2.79V16.18h5.81c-.72,1.68-1.61,3.65-2.4,5.26h.45l.38,0Zm4-3.38H181V16.61h3.21v-1.4h2.11v1.4h4.13v2.51h1v1.7h-1v2.49h-4.13v.9h4.32v1.61h-4.32v.91h4.94v1.76h-4.94v1.28h-2.11V28.49h-4.17V26.73h4.17v-.91H180.8V24.21h3.42v-.9h-3.31V21.63h3.31v-.81H180v-1.7h4.25Zm2.11,0v.82h2.17V18.3Zm2.17,2.52h-2.17v.81h2.17Z" transform="translate(-5 -14.65)"/><path class="cls-1" d="M197,24.17a30.76,30.76,0,0,0-3.51-2l1.21-1.65a35.43,35.43,0,0,1,3.55,1.82Zm2.36,2.36c-1,1.93-2.19,4.06-3.32,5.89l-1.88-1.51a54.49,54.49,0,0,0,3.54-5.9Zm-1.41-7.34c-.74-.6-2.27-1.53-3.34-2.19l1.3-1.57a33.41,33.41,0,0,1,3.39,2ZM211,29.28v2.23H198.66V29.28h4.85V19h-3.83V16.72h10.45V19H206V29.28Z" transform="translate(-5 -14.65)"/><path class="cls-1" d="M217.32,25.76a26.39,26.39,0,0,1-2.62,4l-1.87-1.13a14.79,14.79,0,0,0,2.68-3.76Zm-.51-7H212.9V16.67h3.91v-1.5h2.24v1.5h4.44v-1.5h2.26v1.5h3.87v2.07h-3.87v1.74h-2.26V18.74h-4.44v1.74h-2.24ZM227.94,29.9a25.08,25.08,0,0,0-1.25-3.58c-.2,3.24-.49,4.64-1,5.21a2.29,2.29,0,0,1-1.79.87,17.81,17.81,0,0,1-2.81,0,4.87,4.87,0,0,0-.66-1.94c1.06.07,2,.09,2.45.09a.88.88,0,0,0,.77-.28c.4-.41.65-2.21.82-6.33h-3c-.56,3.82-2.09,6.91-7.05,8.69a5.74,5.74,0,0,0-1.3-1.76c4.32-1.42,5.62-3.86,6.11-6.93h-5V21.89h5.25c0-.58.07-1.16.09-1.78h2.28c0,.62-.05,1.2-.11,1.78h5.15s0,.69,0,1c0,.88-.07,1.69-.11,2.38l1.4-.47a33.15,33.15,0,0,1,1.77,4.34Z" transform="translate(-5 -14.65)"/><path class="cls-1" d="M238.36,16.63c-.49,1.57-1.11,3.44-1.64,4.9a6.09,6.09,0,0,1,1.38,3.88,2.89,2.89,0,0,1-.85,2.47,2.44,2.44,0,0,1-1.08.41,7.71,7.71,0,0,1-1.21,0,4.33,4.33,0,0,0-.49-1.91,8.13,8.13,0,0,0,.82,0,.82.82,0,0,0,.5-.15,1.43,1.43,0,0,0,.33-1.13,5.26,5.26,0,0,0-1.31-3.42c.38-1.12.76-2.64,1.06-3.88h-1.51V32.57h-2V15.88h4.17l.32-.09Zm8.85,13.87c.28,0,.37-.32.41-2.23a5.83,5.83,0,0,0,1.83.82c-.17,2.57-.7,3.28-2,3.28h-1.3c-1.66,0-2-.64-2-2.49V26.06h-1.24c-.28,3.14-1.15,5.32-4.81,6.57a5.78,5.78,0,0,0-1.25-1.8c3-.91,3.68-2.43,3.91-4.77h-2.26v-2h10.75v2h-3V29.9c0,.52,0,.6.3.6ZM239.85,21h-1.47V17.34h4.38a13.5,13.5,0,0,0-.78-1.78l2.13-.6a11.82,11.82,0,0,1,1.08,2.38h3.9V21H247.6v1.66h-7.75Zm.6-1.78v1.52h6.49V19.25Z" transform="translate(-5 -14.65)"/><path class="cls-1" d="M171.24,44.11a3.56,3.56,0,0,1,3.63-3.82,3.31,3.31,0,0,1,2.29.93l-.83.93a2.09,2.09,0,0,0-1.43-.61c-1.18,0-2.07,1-2.07,2.52s.8,2.54,2,2.54a2.21,2.21,0,0,0,1.61-.72l.82.91a3.24,3.24,0,0,1-2.49,1.08A3.46,3.46,0,0,1,171.24,44.11Z" transform="translate(-5 -14.65)"/><path class="cls-1" d="M178.66,40.42h1.56V43.3h3V40.42h1.55v7.31h-1.55V44.57h-3v3.16h-1.56Z" transform="translate(-5 -14.65)"/><path class="cls-1" d="M186.75,40.42h1.56v7.31h-1.56Z" transform="translate(-5 -14.65)"/><path class="cls-1" d="M190.34,40.42h1.59l2.27,3.89.78,1.58H195c-.08-.76-.2-1.73-.2-2.55V40.42h1.48v7.31h-1.59l-2.25-3.91-.79-1.57h-.06c.08.79.19,1.71.19,2.55v2.93h-1.47Z" transform="translate(-5 -14.65)"/><path class="cls-1" d="M202,45.85h-2.53l-.55,1.88h-1.58l2.5-7.31h1.83l2.51,7.31h-1.63Zm-.34-1.13-.23-.8c-.24-.76-.45-1.6-.68-2.39h-.05c-.2.8-.43,1.63-.66,2.39l-.23.8Z" transform="translate(-5 -14.65)"/><path class="cls-1" d="M118.71,40.69h4.79V41.9h-3.23v1.69H123v1.23h-2.74v2h3.34V48h-4.9Z" transform="translate(-5 -14.65)"/><path class="cls-1" d="M125.3,40.69h1.59l2.27,3.89.78,1.58H130c-.08-.76-.2-1.73-.2-2.56V40.69h1.48V48h-1.58l-2.26-3.9-.79-1.57h0c.07.79.19,1.7.19,2.54V48H125.3Z" transform="translate(-5 -14.65)"/><path class="cls-1" d="M133.3,40.69h4.79V41.9h-3.22v1.69h2.74v1.23h-2.74v2h3.34V48H133.3Z" transform="translate(-5 -14.65)"/><path class="cls-1" d="M144.15,48l-1.61-2.76h-1.08V48H139.9v-7.3h2.72c1.63,0,2.93.53,2.93,2.21a2.09,2.09,0,0,1-1.49,2.1l1.83,3Zm-2.69-3.91h1c1,0,1.55-.4,1.55-1.18s-.55-1-1.55-1h-1Z" transform="translate(-5 -14.65)"/><path class="cls-1" d="M146.8,44.37a3.6,3.6,0,0,1,3.75-3.82,3.38,3.38,0,0,1,2.41.94l-.83.93a2.09,2.09,0,0,0-1.53-.61,2.22,2.22,0,0,0-2.2,2.51c0,1.59.78,2.55,2.31,2.55a1.63,1.63,0,0,0,1-.28V45.15H150.3V44h2.78v3.29a3.8,3.8,0,0,1-2.53.88A3.51,3.51,0,0,1,146.8,44.37Z" transform="translate(-5 -14.65)"/><path class="cls-1" d="M156.18,45.32l-2.34-4.63h1.65l.78,1.78c.22.54.44,1.05.68,1.62h0c.24-.57.48-1.08.7-1.62l.78-1.78h1.62l-2.35,4.63V48h-1.56Z" transform="translate(-5 -14.65)"/><path class="cls-1" d="M216.34,46.18l1.14-.78a1.4,1.4,0,0,0,1.23.8c.72,0,1.1-.36,1.1-1.43v-5.1h1.65V44.9a2.39,2.39,0,0,1-2.55,2.64A2.77,2.77,0,0,1,216.34,46.18Z" transform="translate(-5 -14.65)"/><path class="cls-1" d="M223,46.41l.94-1.06a3.35,3.35,0,0,0,2.1.85c.86,0,1.31-.34,1.31-.89s-.5-.75-1.23-1L225,43.83a2.27,2.27,0,0,1-1.67-2.07c0-1.26,1.18-2.23,2.85-2.23a3.79,3.79,0,0,1,2.59,1l-.84,1a2.71,2.71,0,0,0-1.75-.64c-.72,0-1.19.3-1.19.81s.59.75,1.3,1l1.08.42A2.16,2.16,0,0,1,229,45.2c0,1.26-1.13,2.34-3,2.34A4.55,4.55,0,0,1,223,46.41Z" transform="translate(-5 -14.65)"/><path class="cls-1" d="M231,39.67h2.71c1.82,0,3.23.6,3.23,2.42s-1.42,2.56-3.19,2.56h-1.1v2.74H231Zm2.64,3.76c1.14,0,1.68-.45,1.68-1.34s-.6-1.2-1.74-1.2h-.93v2.54Z" transform="translate(-5 -14.65)"/><path class="cls-1" d="M238.8,39.67h2.27c2.52,0,4.08,1.22,4.08,3.83s-1.56,3.89-4,3.89H238.8ZM241,46.15c1.53,0,2.49-.77,2.49-2.65s-1-2.6-2.49-2.6h-.52v5.25Z" transform="translate(-5 -14.65)"/><path class="cls-1" d="M246.52,39.67h1.65v7.72h-1.65Z" transform="translate(-5 -14.65)"/><path class="cls-1" d="M28.59,22.92a.6.6,0,0,1-.61.62H5.24c-.19,0-.37-.35-.1-.62l7.66-7.74A1.42,1.42,0,0,1,14,14.65H27.41c1.07,0,1.18.49,1.18,1.1Z" transform="translate(-5 -14.65)"/><path class="cls-1" d="M28.59,47.65c0,1-.57,1.17-1.15,1.17h-20c-.17,0-.35-.35-.09-.61l7.72-7.75a1.43,1.43,0,0,1,1.19-.53H27.79c.83,0,.8.5.8,1.1Z" transform="translate(-5 -14.65)"/><path class="cls-1" d="M5.61,25a.61.61,0,0,0-.61.62V48c0,.18.35.37.61.1l7.66-7.7a1.44,1.44,0,0,0,.52-1.19v-13c0-1.09-.49-1.2-1.08-1.2Z" transform="translate(-5 -14.65)"/><path class="cls-1" d="M107.51,22.92a.6.6,0,0,1-.6.62H84c-.18,0-.37-.35-.1-.62l7.66-7.74a1.43,1.43,0,0,1,1.18-.53h13.58c1.07,0,1.17.49,1.17,1.1Z" transform="translate(-5 -14.65)"/><path class="cls-1" d="M107.51,47.65c0,1-.56,1.17-1.14,1.17H86.58c-.17,0-.36-.35-.1-.61L94.2,40.5A1.4,1.4,0,0,1,95.38,40l11.33,0c.84,0,.8.5.8,1.1Z" transform="translate(-5 -14.65)"/><path class="cls-1" d="M84.54,25a.61.61,0,0,0-.61.62V48.14c0,.18.34.38.61.11l7.66-7.68a1.46,1.46,0,0,0,.51-1.19V26.2c0-1.09-.48-1.2-1.08-1.2Z" transform="translate(-5 -14.65)"/><path class="cls-1" d="M54.16,22.92a.6.6,0,0,1-.61.62H30.87c-.18,0-.38-.35-.1-.62l7.69-7.74a1.43,1.43,0,0,1,1.18-.53H53c1.08,0,1.18.49,1.18,1.1Z" transform="translate(-5 -14.65)"/><path class="cls-1" d="M54.16,47.65c0,1-.57,1.17-1.14,1.17H33.33c-.17,0-.36-.35-.09-.61L41,40.46a1.43,1.43,0,0,1,1.19-.53H53.36c.84,0,.8.5.8,1.1Z" transform="translate(-5 -14.65)"/><path class="cls-1" d="M31.24,25a.61.61,0,0,0-.61.62V48.18c0,.18.35.37.61.1l7.69-7.68a1.48,1.48,0,0,0,.51-1.2l0-13.2c0-1.09-.48-1.2-1.07-1.2Z" transform="translate(-5 -14.65)"/><path class="cls-1" d="M54.16,34.8a.94.94,0,0,1-.93,1H44.54a.94.94,0,0,1-.94-1V28.67a.94.94,0,0,1,.94-.94h8.69a.94.94,0,0,1,.93.94Z" transform="translate(-5 -14.65)"/><path class="cls-2" d="M58.36,40.56a.61.61,0,0,1,.61-.62H81.64c.19,0,.38.35.11.62L74.08,48.3a1.46,1.46,0,0,1-1.19.52H59.54c-1.08,0-1.18-.48-1.18-1.09Z" transform="translate(-5 -14.65)"/><path class="cls-2" d="M58.36,15.83c0-1,.56-1.18,1.14-1.18H79.18c.17,0,.36.35.1.62L71.54,23a1.45,1.45,0,0,1-1.19.52H59.15c-.83,0-.79-.49-.79-1.1Z" transform="translate(-5 -14.65)"/><path class="cls-2" d="M81.28,38.48a.61.61,0,0,0,.61-.62V15.3c0-.18-.35-.37-.61-.11l-7.67,7.65A1.46,1.46,0,0,0,73.1,24V37.28c0,1.1.48,1.2,1.07,1.2Z" transform="translate(-5 -14.65)"/><path class="cls-2" d="M58.36,28.68a.93.93,0,0,1,.94-.95H68a.94.94,0,0,1,.93.95v6.14a.93.93,0,0,1-.93.94H59.3a.93.93,0,0,1-.94-.94Z" transform="translate(-5 -14.65)"/></svg>