<svg width="49px" height="40px" viewBox="0 0 42 29" version="1.1" xmlns="http://www.w3.org/2000/svg" xmlns:xlink="http://www.w3.org/1999/xlink"><g id="编组备份-2" fill="#fffffff" fill-rule="nonzero">
                <polygon id="路径" points="0 0 5.55796787 0 5.55796787 2.22318714 0 2.22318714"></polygon>
                <polygon id="路径" points="0 17.5209379 5.55796787 17.5209379 5.55796787 19.744125 0 19.744125"></polygon>
                <polygon id="路径" points="0 26.2425011 5.55796787 26.2425011 5.55796787 28.4656882 0 28.4656882"></polygon>
                <polygon id="路径" points="10.0043422 0 29.5550499 0 29.5550499 2.22318714 10.0043422 2.22318714"></polygon>
                <polygon id="路径" points="0 8.76158055 5.55796787 8.76158055 5.55796787 10.9847677 0 10.9847677"></polygon>
                <polygon id="路径" points="10.0043422 8.76158055 19.0043422 8.76158055 19.0043422 10.9847677 10.0043422 10.9847677"></polygon>
                <polygon id="路径" points="10.0043422 17.5209379 19.0043422 17.5209379 19.0043422 19.744125 10.0043422 19.744125"></polygon>
                <polygon id="路径" points="10.3022492 26.6782458 16.9718107 26.6782458 16.9718107 28.9014329 10.3022492 28.9014329"></polygon>
            </g>
            <polyline id="路径" stroke="#ffffff" stroke-width="2" fill-opacity="0" fill="#D8D8D8" points="21 18.1346984 21 8 41 8 41 28 21 28 21 23.7404092"></polyline>
            <rect id="矩形" fill="#ffffff" x="25" y="12" width="2" height="12"></rect>
            <rect id="矩形备份-3" fill="#ffffff" x="35" y="12" width="2" height="6"></rect>
            <rect id="矩形备份-7" fill="#ffffff" x="29" y="18" width="2" height="6"></rect>
            <rect id="矩形备份-5" fill="#ffffff" transform="translate(32.000000, 13.000000) rotate(90.000000) translate(-32.000000, -13.000000) " x="31" y="10" width="2" height="6"></rect>
            <rect id="矩形备份-6" fill="#ffffff" transform="translate(33.000000, 18.000000) rotate(90.000000) translate(-33.000000, -18.000000) " x="32" y="14" width="2" height="8"></rect>
            <rect id="矩形备份-8" fill="#ffffff" transform="translate(33.000000, 23.000000) rotate(90.000000) translate(-33.000000, -23.000000) " x="32" y="19" width="2" height="8"></rect>
        </g>
</svg>
