<svg width="49px" height="40px" viewBox="0 0 41 29" version="1.1" xmlns="http://www.w3.org/2000/svg" xmlns:xlink="http://www.w3.org/1999/xlink"> <path d="M30.4951693,10 C30.7681682,10 31.0398545,10.1513988 31.1947288,10.3797733 L40.9124367,27.8581161 C41.0291878,28.0984337 41.0291878,28.3773359 40.9124367,28.6176535 C40.7564787,28.8490988 40.4949549,28.9917634 40.2115648,29 L20.7761489,29 C20.501093,29.001509 20.2474474,28.8551074 20.1159643,28.6189365 C19.9613452,28.3883152 19.9613452,28.0900203 20.1159643,27.8593991 L22.2933924,23.9449585 C22.4876415,23.5651898 22.953577,23.4510025 23.3433878,23.6421699 C23.7305736,23.8320543 23.8473856,24.2875202 23.654449,24.6672889 L22.0991432,27.4783473 L38.9305703,27.4783473 L30.4951693,12.3568801 L26.6863108,19.2337734 C26.4920617,19.6122591 26.0261262,19.7277294 25.6363154,19.537845 C25.2478171,19.3479606 25.1310051,18.8924947 25.3252542,18.511443 L29.7956099,10.3810563 C29.9448534,10.1434676 30.2099571,9.99906497 30.4951693,10 Z M16.9718107,26.6782458 L16.9718107,28.9014329 L10.3022492,28.9014329 L10.3022492,26.6782458 L16.9718107,26.6782458 Z M5.55796787,26.2425011 L5.55796787,28.4656882 L0,28.4656882 L0,26.2425011 L5.55796787,26.2425011 Z M30,23.623492 C30.450253,23.623492 30.7993255,23.891278 30.7993255,24.2366831 L30.7993255,25.3867399 C30.8016052,25.5498981 30.7181231,25.7068839 30.5677235,25.8222608 C30.4474038,25.9145624 30.292371,25.9740097 30.1262759,25.9932011 L29.999,25.999 L29.8735293,25.9935746 C29.7071447,25.9748053 29.5517288,25.9154806 29.4312443,25.8230527 C29.2806387,25.7075178 29.1974577,25.5501123 29.2006745,25.3867399 L29.2006745,24.2366831 C29.2006745,23.891278 29.549747,23.623492 30,23.623492 Z M30,16 C30.5480607,16 31,16.3441115 31,16.7658421 L31,22.1293238 C30.9972327,22.5521187 30.5511344,22.8943367 30,22.8964595 C29.4484837,22.8950398 29.0018507,22.5524117 29,22.1293238 L29,16.7658421 C29,16.3441115 29.4519393,16 30,16 Z M5.55796787,17.5209379 L5.55796787,19.744125 L0,19.744125 L0,17.5209379 L5.55796787,17.5209379 Z M23.0043422,17.5209379 L23.0043422,19.744125 L10.0043422,19.744125 L10.0043422,17.5209379 L23.0043422,17.5209379 Z M5.55796787,8.76158055 L5.55796787,10.9847677 L0,10.9847677 L0,8.76158055 L5.55796787,8.76158055 Z M27.0043422,8.76158055 L27.0043422,10.9847677 L10.0043422,10.9847677 L10.0043422,8.76158055 L27.0043422,8.76158055 Z M5.55796787,0 L5.55796787,2.22318714 L0,2.22318714 L0,0 L5.55796787,0 Z M29.5550499,0 L29.5550499,2.22318714 L10.0043422,2.22318714 L10.0043422,0 L29.5550499,0 Z" id="隐患分类" fill="#fffffff" fill-rule="nonzero"></path></svg>
