<svg width="40px" height="40px" viewBox="0 0 40 40" version="1.1" xmlns="http://www.w3.org/2000/svg" xmlns:xlink="http://www.w3.org/1999/xlink"><path d="M37.138,25.2653333 C39.9533333,28.114 40.0993333,32.696 37.7386667,35.9186667 C37.8,35.9466667 37.8566667,35.984 37.908,36.028 L39.8393333,38.1613333 C40.158,38.438 39.9506666,39.184 39.6693333,39.496 C39.5226666,39.6573333 39.052,40.0000015 38.832,40.0000015 C38.6445076,40.00037 38.4632657,39.9326116 38.322,39.8093333 L36.35,37.7326667 C36.3041292,37.6934811 36.2633653,37.6486856 36.2286667,37.5993333 C32.9126667,40.7506666 28.3433334,39.928 25.13,36.6766667 C23.5889877,35.1292289 22.739362,33.024303 22.7743948,30.8407153 C22.8094277,28.6571276 23.7261403,26.5805403 25.316,25.0833333 C28.6313333,21.932 33.9246667,22.0133333 37.138,25.2653333 L37.138,25.2653333 Z M20.0513333,0 C22.6453333,0 23.5893333,2.24933332 23.5893333,2.36733332 L34.0386667,21.1073333 C32.9034355,20.7667311 31.718526,20.6217736 30.5346667,20.6786667 L21.23,3.78733332 L21.23,3.66866668 C21.23,3.66866668 21.23,3.55066668 21.112,3.55066668 L21.062,3.45733332 C20.928,3.23066664 20.6693333,2.95866664 20.0506667,2.95866668 C19.3426667,2.95866668 18.8713334,3.78733336 18.8713333,3.78733332 L18.7533333,4.024 L2.71266668,32.7906667 C2.71266668,33.0286667 2.59466668,33.1466667 2.59466668,33.384 C2.59466668,34.3306667 3.30266668,35.3333333 4.01,35.3333333 L21.7366667,35.3333333 C22.1683362,36.222013 22.7268368,37.0432582 23.3946667,37.7713333 L23.6113333,38 L4.01,38 C1.77,38 0,35.988 0,33.3833333 C0,32.1333333 0.36533332,31.342 0.45333332,31.17 L16.5126667,2.24933332 C16.5126667,2.13066668 17.5733333,0 20.0506667,0 L20.0513333,0 Z M31.08,25.36 C27.8286667,25.36 25.3713333,27.986 25.3719999,31.2253333 C25.3726667,34.4646666 27.8306667,37.0913333 31.082,37.0906668 C34.2793333,37.0906668 37.0673333,34.5506667 37.1526667,31.3866667 L37.1553333,31.2253333 C37.1513333,28.0406666 34.4173333,25.4506666 31.242,25.362 L31.08,25.3593333 L31.08,25.36 Z M20.05,26.7546667 C20.536,26.7546667 21.0013333,26.9553334 21.3813333,27.2826667 C20.8588167,28.6593757 20.6409252,30.1329867 20.7426667,31.602 C20.5209176,31.6840099 20.2864277,31.7262135 20.05,31.7266667 C18.8706667,31.7266667 17.81,30.5426667 17.81,29.24 C17.81,27.82 18.752,26.7546667 20.05,26.7546667 L20.05,26.7546667 Z M20.05,10.2993333 C21.2293333,10.2993333 22.2906667,11.4833333 22.2906667,12.7853333 L21.348,24.15 C21.348,24.9406667 20.918,25.516 20.1606667,25.5666667 L20.05,25.5713333 C19.224,25.5713333 18.7533333,24.978 18.7533333,24.15 L17.8093333,12.7853333 C17.8093333,11.3646666 18.752,10.2993333 20.05,10.2993333 L20.05,10.2993333 Z" id="形状" /></svg>
