<?xml version="1.0" standalone="no"?><!DOCTYPE svg PUBLIC "-//W3C//DTD SVG 1.1//EN" "http://www.w3.org/Graphics/SVG/1.1/DTD/svg11.dtd"><svg t="1611277173190" class="icon" viewBox="0 0 1024 1024" version="1.1" xmlns="http://www.w3.org/2000/svg" p-id="2544" xmlns:xlink="http://www.w3.org/1999/xlink" width="200" height="200"><defs><style type="text/css"></style></defs><path d="M659.925279 880.641366a141.173081 141.173081 0 0 1-43.437871 101.491629 151.96425 151.96425 0 0 1-209.47162 0 141.173081 141.173081 0 0 1-43.437871-101.081838h296.347362zM511.785747 0C457.283513 0 412.889463 41.798706 412.889463 93.227506a93.910492 93.910492 0 0 0 1.297672 15.367172c-136.597079 44.940439-235.834856 159.681985-235.834856 322.710598v125.805909s-12.840125 156.403655-60.990596 158.04282c-28.685387 0-50.745815 20.899353-50.745815 46.579604a47.808978 47.808978 0 0 0 49.516441 46.647902h791.443474a46.716201 46.716201 0 1 0 0-93.227506c-49.516441 0-61.468685-158.04282-61.468686-158.04282V431.305276c0-163.16521-92.612819-278.043354-236.449543-322.778897a95.617955 95.617955 0 0 0 1.297673-15.230574C610.750331 41.867005 566.424579 0 511.785747 0z" p-id="2545"></path></svg>