<svg width="49px" height="40px" viewBox="0 0 49 40" version="1.1" xmlns="http://www.w3.org/2000/svg" xmlns:xlink="http://www.w3.org/1999/xlink"> <path d="M45.6590909,0 C47.5042241,0 49,1.49238417 49,3.33333333 L49,36.6666667 C49,38.4317307 47.6211194,39.890894 45.8550909,39.9944444 L45.6590909,40 L3.34090915,40 L3.17943184,39.9944444 L3.1348864,39.9944444 C2.87893528,39.9788453 2.62560962,39.9341106 2.37984095,39.8611111 L2.26847733,39.8244444 C2.11956574,39.774033 1.97442831,39.7131392 1.83415915,39.6422222 L1.74952275,39.5977778 C1.22884716,39.3168928 0.792563423,38.9026919 0.485545495,38.3977778 C0.30276424,38.0984873 0.168583423,37.7722335 0.0879773132,37.4311111 L0.0857500231,37.42 L0.0657045685,37.3266667 C0.0219682076,37.1093779 0,36.8882939 0,36.6666667 L0,3.33333333 C0,1.49238417 1.49577601,0 3.34090915,0 L45.6590909,0 Z M44.5454546,3.33333333 L4.45454549,3.33333333 C3.88995989,3.33333333 3.4147611,3.75500789 3.34870458,4.31444443 L3.34090915,4.44444443 L3.34090915,33.9355556 L15.2646137,22.0411111 C15.8911719,21.4158677 16.741031,21.0646007 17.6271932,21.0646007 C18.5133555,21.0646007 19.3632145,21.4158677 19.9897728,22.0411111 L23.7516364,25.7944444 L33.0839091,16.4855556 C34.3885336,15.1842824 36.50333,15.1842824 37.8079546,16.4855556 L45.6590909,24.3188889 L45.6590909,4.44444443 C45.6590909,4.14975944 45.5417617,3.86714399 45.3329144,3.65877024 C45.124067,3.45039649 44.8408093,3.33333333 44.5454546,3.33333333 L44.5454546,3.33333333 Z M14.4772728,8.88888891 C16.3224059,8.88888891 17.8181819,10.3812731 17.8181819,12.2222222 C17.8181819,14.0631714 16.3224059,15.5555556 14.4772728,15.5555556 C12.6321396,15.5555556 11.1363637,14.0631714 11.1363637,12.2222222 C11.1363637,10.3812731 12.6321396,8.88888891 14.4772728,8.88888891 Z" id="形状"></path> <path d="M45.6590909,0 C47.5042241,0 49,1.49238417 49,3.33333333 L49,36.6666667 C49,38.4317307 47.6211194,39.890894 45.8550909,39.9944444 L45.6590909,40 L3.34090915,40 L3.17943184,39.9944444 L3.1348864,39.9944444 C2.87893528,39.9788453 2.62560962,39.9341106 2.37984095,39.8611111 L2.26847733,39.8244444 C2.11956574,39.774033 1.97442831,39.7131392 1.83415915,39.6422222 L1.74952275,39.5977778 C1.22884716,39.3168928 0.792563423,38.9026919 0.485545495,38.3977778 C0.30276424,38.0984873 0.168583423,37.7722335 0.0879773132,37.4311111 L0.0857500231,37.42 L0.0657045685,37.3266667 C0.0219682076,37.1093779 0,36.8882939 0,36.6666667 L0,3.33333333 C0,1.49238417 1.49577601,0 3.34090915,0 L45.6590909,0 Z M44.5454546,3.33333333 L4.45454549,3.33333333 C3.88995989,3.33333333 3.4147611,3.75500789 3.34870458,4.31444443 L3.34090915,4.44444443 L3.34090915,33.9355556 L15.2646137,22.0411111 C15.8911719,21.4158677 16.741031,21.0646007 17.6271932,21.0646007 C18.5133555,21.0646007 19.3632145,21.4158677 19.9897728,22.0411111 L23.7516364,25.7944444 L33.0839091,16.4855556 C34.3885336,15.1842824 36.50333,15.1842824 37.8079546,16.4855556 L45.6590909,24.3188889 L45.6590909,4.44444443 C45.6590909,4.14975944 45.5417617,3.86714399 45.3329144,3.65877024 C45.124067,3.45039649 44.8408093,3.33333333 44.5454546,3.33333333 L44.5454546,3.33333333 Z M14.4772728,8.88888891 C16.3224059,8.88888891 17.8181819,10.3812731 17.8181819,12.2222222 C17.8181819,14.0631714 16.3224059,15.5555556 14.4772728,15.5555556 C12.6321396,15.5555556 11.1363637,14.0631714 11.1363637,12.2222222 C11.1363637,10.3812731 12.6321396,8.88888891 14.4772728,8.88888891 Z" id="形状"></path> <path d="M45.6590909,0 C47.5042241,0 49,1.49238417 49,3.33333333 L49,36.6666667 C49,38.4317307 47.6211194,39.890894 45.8550909,39.9944444 L45.6590909,40 L3.34090915,40 L3.17943184,39.9944444 L3.1348864,39.9944444 C2.87893528,39.9788453 2.62560962,39.9341106 2.37984095,39.8611111 L2.26847733,39.8244444 C2.11956574,39.774033 1.97442831,39.7131392 1.83415915,39.6422222 L1.74952275,39.5977778 C1.22884716,39.3168928 0.792563423,38.9026919 0.485545495,38.3977778 C0.30276424,38.0984873 0.168583423,37.7722335 0.0879773132,37.4311111 L0.0857500231,37.42 L0.0657045685,37.3266667 C0.0219682076,37.1093779 0,36.8882939 0,36.6666667 L0,3.33333333 C0,1.49238417 1.49577601,0 3.34090915,0 L45.6590909,0 Z M44.5454546,3.33333333 L4.45454549,3.33333333 C3.88995989,3.33333333 3.4147611,3.75500789 3.34870458,4.31444443 L3.34090915,4.44444443 L3.34090915,33.9355556 L15.2646137,22.0411111 C15.8911719,21.4158677 16.741031,21.0646007 17.6271932,21.0646007 C18.5133555,21.0646007 19.3632145,21.4158677 19.9897728,22.0411111 L23.7516364,25.7944444 L33.0839091,16.4855556 C34.3885336,15.1842824 36.50333,15.1842824 37.8079546,16.4855556 L45.6590909,24.3188889 L45.6590909,4.44444443 C45.6590909,4.14975944 45.5417617,3.86714399 45.3329144,3.65877024 C45.124067,3.45039649 44.8408093,3.33333333 44.5454546,3.33333333 L44.5454546,3.33333333 Z M14.4772728,8.88888891 C16.3224059,8.88888891 17.8181819,10.3812731 17.8181819,12.2222222 C17.8181819,14.0631714 16.3224059,15.5555556 14.4772728,15.5555556 C12.6321396,15.5555556 11.1363637,14.0631714 11.1363637,12.2222222 C11.1363637,10.3812731 12.6321396,8.88888891 14.4772728,8.88888891 Z" id="形状"></path></svg>

