<?xml version="1.0" standalone="no"?><!DOCTYPE svg PUBLIC "-//W3C//DTD SVG 1.1//EN" "http://www.w3.org/Graphics/SVG/1.1/DTD/svg11.dtd"><svg t="1628592907184" class="icon" viewBox="0 0 1024 1024" version="1.1" xmlns="http://www.w3.org/2000/svg" p-id="5471" xmlns:xlink="http://www.w3.org/1999/xlink" width="260" height="260"><defs><style type="text/css"></style></defs><path d="M512 234.666667c25.6 0 42.666667-17.066667 42.666667-42.666667V85.333333c0-25.6-17.066667-42.666667-42.666667-42.666666s-42.666667 17.066667-42.666667 42.666666v106.666667c0 25.6 17.066667 42.666667 42.666667 42.666667zM243.2 307.2c8.533333 8.533333 21.333333 17.066667 34.133333 17.066667 8.533333 0 21.333333-4.266667 25.6-8.533334 17.066667-17.066667 21.333333-42.666667 4.266667-59.733333L238.933333 170.666667c-17.066667-17.066667-42.666667-21.333333-59.733333-4.266667-17.066667 17.066667-21.333333 42.666667-4.266667 59.733333l68.266667 81.066667zM38.4 520.533333l106.666667 17.066667h8.533333c21.333333 0 38.4-12.8 42.666667-34.133333 4.266667-21.333333-12.8-46.933333-34.133334-51.2l-106.666666-17.066667c-21.333333-4.266667-46.933333 12.8-51.2 34.133333-4.266667 25.6 8.533333 46.933333 34.133333 51.2zM832 503.466667c4.266667 21.333333 21.333333 34.133333 42.666667 34.133333h8.533333l106.666667-17.066667c21.333333-4.266667 38.4-25.6 34.133333-51.2-4.266667-21.333333-25.6-38.4-51.2-34.133333l-106.666667 17.066667c-21.333333 4.266667-34.133333 25.6-34.133333 51.2zM750.933333 320c12.8 0 25.6-4.266667 34.133334-17.066667L853.333333 221.866667c17.066667-17.066667 12.8-46.933333-4.266666-59.733334-17.066667-17.066667-46.933333-12.8-59.733334 4.266667l-68.266666 81.066667c-17.066667 17.066667-12.8 46.933333 4.266666 59.733333 4.266667 8.533333 12.8 12.8 25.6 12.8zM981.333333 896h-192v-320C789.333333 422.4 665.6 298.666667 512 298.666667s-277.333333 123.733333-277.333333 277.333333V896H42.666667c-25.6 0-42.666667 17.066667-42.666667 42.666667s17.066667 42.666667 42.666667 42.666666h938.666666c25.6 0 42.666667-17.066667 42.666667-42.666666s-17.066667-42.666667-42.666667-42.666667zM320 896v-320C320 469.333333 405.333333 384 512 384s192 85.333333 192 192V896h-384z" p-id="5472"></path><path d="M597.333333 597.333333h-98.133333l34.133333-64c12.8-21.333333 4.266667-46.933333-17.066666-59.733333-21.333333-12.8-46.933333-4.266667-59.733334 17.066667l-72.533333 128c-8.533333 12.8-8.533333 29.866667 0 42.666666 12.8 12.8 25.6 21.333333 42.666667 21.333334h98.133333l-34.133333 64c-12.8 21.333333-4.266667 46.933333 17.066666 59.733333 4.266667 4.266667 12.8 4.266667 17.066667 4.266667 17.066667 0 29.866667-8.533333 38.4-21.333334l72.533333-128c8.533333-12.8 8.533333-29.866667 0-42.666666-8.533333-12.8-21.333333-21.333333-38.4-21.333334z" p-id="5473"></path></svg>