<?xml version="1.0" standalone="no"?><!DOCTYPE svg PUBLIC "-//W3C//DTD SVG 1.1//EN" "http://www.w3.org/Graphics/SVG/1.1/DTD/svg11.dtd"><svg t="1628594398131" class="icon" viewBox="0 0 1024 1024" version="1.1" xmlns="http://www.w3.org/2000/svg" p-id="12151" xmlns:xlink="http://www.w3.org/1999/xlink" width="260" height="260"><defs><style type="text/css"></style></defs><path d="M501.676408 543.973878l-256.041796-140.789551-141.270204 77.698612a52.244898 52.244898 0 0 0 0 91.574857l372.129959 204.632816a52.244898 52.244898 0 0 0 50.364082 0l372.129959-204.632816a52.244898 52.244898 0 0 0 0-91.574857l-141.291102-77.677715-256.020898 140.768654z m256-69.234939l94.437878 51.931428-350.437878 192.679184-350.437877-192.700082 94.396081-51.91053 230.859755 126.955102a52.244898 52.244898 0 0 0 44.34547 2.821224l4.242285-1.922612 232.594286-127.853714z" p-id="12152"></path><path d="M501.676408 732.05551l-256.041796-140.789551-141.270204 77.698612a52.244898 52.244898 0 0 0 0 91.574858l372.129959 204.632816a52.244898 52.244898 0 0 0 50.364082 0l372.129959-204.632816a52.244898 52.244898 0 0 0 0-91.574858l-141.291102-77.677714-256.020898 140.768653z m256-69.234939l94.437878 51.931429-350.437878 192.679184-350.437877-192.700082 94.396081-51.910531 230.859755 126.955102a52.244898 52.244898 0 0 0 44.34547 2.821225l4.242285-1.922612 232.594286-127.853715z" p-id="12153"></path><path d="M59.308408 297.984a52.244898 52.244898 0 0 0 19.205225 71.345633l386.65404 222.605061a52.244898 52.244898 0 0 0 52.119511 0l386.65404-222.605061a52.244898 52.244898 0 0 0 0-90.550857L517.287184 56.152816a52.244898 52.244898 0 0 0-52.119511 0L78.513633 278.778776a52.244898 52.244898 0 0 0-19.226123 19.205224z m66.204735 26.059755l365.714286-210.546939 365.714285 210.546939-365.714285 210.567837-365.714286-210.567837z" p-id="12154"></path></svg>