<svg width="47px" height="48px" viewBox="0 0 47 48" version="1.1" xmlns="http://www.w3.org/2000/svg" xmlns:xlink="http://www.w3.org/1999/xlink"> <path d="M44.5398475,31.9838225 C43.5061215,31.4638318 43.015246,30.267853 43.3732964,29.1700948 L44.2337722,26.5643633 L42.4204204,24.7501733 L39.8216678,25.6168246 C38.7244167,25.9808181 37.5289905,25.4839381 37.00924,24.4497342 L35.7791638,22 L33.2150612,22 L31.984985,24.4555119 C31.4652345,25.4897157 30.2698083,25.9808181 29.1725572,25.6226023 L26.5680296,24.7617287 L24.7546778,26.5759187 L25.6151536,29.1816501 C25.978979,30.2794084 25.4823285,31.4753871 24.4486024,31.9953779 L22,33.2260226 L22,35.7913104 L24.4486024,37.0219552 C25.4823285,37.5419459 25.973204,38.7379247 25.6151536,39.8356829 L24.7604528,42.429859 L26.5738046,44.244049 L29.1783322,43.3831754 C30.2755833,43.0191819 31.4710095,43.5160619 31.99076,44.5502658 L33.2208362,47 L35.7849388,47 L37.015015,44.5502658 C37.5347655,43.5160619 38.7301917,43.0249596 39.8274428,43.3831754 L42.4319704,44.244049 L44.2453222,42.429859 L43.3848464,39.8241276 C43.021021,38.7263693 43.5176715,37.5303906 44.5513976,37.0103998 L47,35.779755 L47,33.2144673 L44.5398475,31.9838225 Z M34.5028875,38.8072568 C32.1235851,38.8072568 30.1947332,36.8775133 30.1947332,34.4971112 C30.1947332,32.116709 32.1235851,30.1869656 34.5028875,30.1869656 C36.8821899,30.1869656 38.8110418,32.116709 38.8110418,34.4971112 C38.8110418,36.8775133 36.8821899,38.8072568 34.5028875,38.8072568 Z" id="形状"></path><path d="M19.4855234,35.1163349 C19.4855234,26.4754138 26.5327394,19.4751739 35.2187082,19.4751739 C36.5216036,19.4751739 37.789755,19.6363636 39,19.9299592 L39,2.2739266 C39,1.02470616 37.969265,0 36.7126949,0 L2.28730512,0 C1.03073497,0 0,1.02470616 0,2.2739266 L0,45.7260734 C0,46.9752938 1.03073497,48 2.28730512,48 L26.2953229,48 C22.1839644,45.1791797 19.4855234,40.4586232 19.4855234,35.1163349 Z M5.51269488,11.8301751 C5.51269488,10.5579276 6.54922049,9.52746462 7.82895323,9.52746462 L24.5812918,9.52746462 C25.8610245,9.52746462 26.8975501,10.5579276 26.8975501,11.8301751 C26.8975501,13.1024226 25.8610245,14.1328856 24.5812918,14.1328856 L7.82895323,14.1328856 C6.55501114,14.1328856 5.51269488,13.1024226 5.51269488,11.8301751 Z M15.4668151,23.7294315 C15.4668151,25.0016791 14.4302895,26.032142 13.1505568,26.032142 L7.82895323,26.032142 C6.54922049,26.032142 5.51269488,25.0016791 5.51269488,23.7294315 C5.51269488,22.457184 6.54922049,21.426721 7.82895323,21.426721 L13.1505568,21.426721 C14.4302895,21.426721 15.4668151,22.457184 15.4668151,23.7294315 Z" id="形状"></path></svg>
