<?xml version="1.0" standalone="no"?><!DOCTYPE svg PUBLIC "-//W3C//DTD SVG 1.1//EN" "http://www.w3.org/Graphics/SVG/1.1/DTD/svg11.dtd"><svg t="1627291254880" class="icon" viewBox="0 0 1024 1024" version="1.1" xmlns="http://www.w3.org/2000/svg" p-id="3072" xmlns:xlink="http://www.w3.org/1999/xlink" width="32" height="32"><defs><style type="text/css">@font-face { font-family: feedback-iconfont; src: url("//at.alicdn.com/t/font_1031158_1uhr8ri0pk5.eot?#iefix") format("embedded-opentype"), url("//at.alicdn.com/t/font_1031158_1uhr8ri0pk5.woff2") format("woff2"), url("//at.alicdn.com/t/font_1031158_1uhr8ri0pk5.woff") format("woff"), url("//at.alicdn.com/t/font_1031158_1uhr8ri0pk5.ttf") format("truetype"), url("//at.alicdn.com/t/font_1031158_1uhr8ri0pk5.svg#iconfont") format("svg"); }
</style></defs><path d="M760.32 524.8h-307.2c-25.6 0-46.08-20.48-46.08-46.08s20.48-46.08 46.08-46.08h307.2c25.6 0 46.08 20.48 46.08 46.08s-20.48 46.08-46.08 46.08z m-524.8 135.68c0 28.16 20.48 48.64 48.64 48.64s48.64-23.04 48.64-48.64-20.48-48.64-48.64-48.64-48.64 20.48-48.64 48.64z m0-181.76c0 28.16 20.48 48.64 48.64 48.64s48.64-23.04 48.64-48.64-20.48-48.64-48.64-48.64-48.64 23.04-48.64 48.64z m524.8 227.84h-307.2c-25.6 0-46.08-20.48-46.08-46.08s20.48-46.08 46.08-46.08h307.2c25.6 0 46.08 20.48 46.08 46.08s-20.48 46.08-46.08 46.08z m209.92 148.48v-576c0-69.12-64-64-64-64H545.28c-20.48 0-33.28-10.24-33.28-10.24s-15.36-25.6-43.52-66.56c-25.6-46.08-58.88-38.4-58.88-38.4H130.56c-79.36 0-79.36 74.24-79.36 74.24v675.84c0 84.48 64 74.24 64 74.24h798.72c66.56 0 56.32-69.12 56.32-69.12z" p-id="3073" fill="#ffffff"></path></svg>