<?xml version="1.0" standalone="no"?><!DOCTYPE svg PUBLIC "-//W3C//DTD SVG 1.1//EN" "http://www.w3.org/Graphics/SVG/1.1/DTD/svg11.dtd"><svg t="1627269149777" class="icon" viewBox="0 0 1024 1024" version="1.1" xmlns="http://www.w3.org/2000/svg" p-id="21307" xmlns:xlink="http://www.w3.org/1999/xlink" width="32" height="32"><defs><style type="text/css">@font-face { font-family: feedback-iconfont; src: url("//at.alicdn.com/t/font_1031158_1uhr8ri0pk5.eot?#iefix") format("embedded-opentype"), url("//at.alicdn.com/t/font_1031158_1uhr8ri0pk5.woff2") format("woff2"), url("//at.alicdn.com/t/font_1031158_1uhr8ri0pk5.woff") format("woff"), url("//at.alicdn.com/t/font_1031158_1uhr8ri0pk5.ttf") format("truetype"), url("//at.alicdn.com/t/font_1031158_1uhr8ri0pk5.svg#iconfont") format("svg"); }
</style></defs><path d="M481.94732744 272.01757432v179.96485078c0 16.52021104-13.53251338 29.96485049-29.96485049 29.96485048H272.01762617C156.11252979 481.94727558 62.0879249 387.92267158 62.0879249 272.01757432c0-57.90861123 23.55008818-110.36906895 61.51142373-148.50615059 37.96133555-37.96133555 90.42179238-61.51142373 148.50615059-61.51142373s110.54481504 23.55008818 148.50615146 61.51142373c37.78558857 38.13708252 61.33567676 90.68541328 61.33567676 148.50615059zM961.91217793 272.01757432c0 57.90861123-23.55008818 110.36906895-61.51142373 148.50615146-37.96133555 37.96133555-90.42179238 61.51142373-148.50615058 61.51142373H571.92975283c-16.52021104 0-29.96485049-13.53251338-29.96485049-29.96485049V272.01757432C541.96490234 156.11247793 635.98950635 62.08787305 751.89460362 62.08787305c57.99648516 0 110.54481504 23.55008818 148.50615058 61.51142373 37.96133555 38.04920947 61.51142373 90.59753935 61.51142373 148.41827754zM481.94732744 572.0175749v179.96485078c0 115.90509638-94.02460489 209.92970127-209.92970127 209.92970127S62.00005185 867.88752207 62.00005185 751.98242568c0-57.90861123 23.55008818-110.36906895 61.51142286-148.50615146 37.96133555-37.96133555 90.42179238-61.51142373 148.50615146-61.51142373h179.96485078c16.52021104 0 29.96485049 13.53251338 29.96485049 30.05272441zM961.91217793 751.98242568c0 57.90861123-23.55008818 110.36906895-61.51142373 148.50615059-37.96133555 37.96133555-90.42179238 61.51142373-148.50615058 61.51142373-115.90509638 0-209.92970127-94.02460489-209.92970128-209.92970127V572.0175749c0-16.52021104 13.53251338-29.96485049 29.96485049-29.96485048h179.96485079c115.90509638-0.08787305 210.01757432 93.93673096 210.01757431 209.92970126z" p-id="21308" fill="#ffffff"></path></svg>