<?xml version="1.0" standalone="no"?><!DOCTYPE svg PUBLIC "-//W3C//DTD SVG 1.1//EN" "http://www.w3.org/Graphics/SVG/1.1/DTD/svg11.dtd"><svg class="icon" width="200px" height="200.00px" viewBox="0 0 1024 1024" version="1.1" xmlns="http://www.w3.org/2000/svg"><path fill="" d="M551.716571 519.753143c83.894857 0 161.938286 24.429714 228.205715 65.974857a237.494857 237.494857 0 0 0-158.939429 405.211429H160.914286a40.082286 40.082286 0 0 1-40.155429-40.228572 431.396571 431.396571 0 0 1 430.957714-430.957714z m386.194286 159.012571a41.179429 41.179429 0 0 1 0 58.368l-70.948571 71.021715 70.948571 70.948571a41.252571 41.252571 0 0 1-58.294857 58.294857l-71.021714-70.948571-70.948572 70.875428a41.325714 41.325714 0 0 1-58.294857-58.294857l70.948572-70.948571-70.948572-70.875429a41.325714 41.325714 0 0 1 58.368-58.368l70.948572 70.948572 70.948571-71.021715c16.091429-16.091429 42.276571-16.091429 58.368 0zM551.789714 5.485714a257.097143 257.097143 0 0 1 256.877715 256.877715 257.170286 257.170286 0 0 1-256.877715 256.877714 257.170286 257.170286 0 0 1-256.877714-256.877714A257.097143 257.097143 0 0 1 551.716571 5.485714z" /></svg>