<svg width="40px" height="48px" viewBox="0 0 40 48" version="1.1" xmlns="http://www.w3.org/2000/svg" xmlns:xlink="http://www.w3.org/1999/xlink"><path d="M37.5,0 C38.8807119,0 40,1.1310701 40,2.52631575 L40,45.4736842 C40,46.8689299 38.8807119,48 37.5,48 L2.5,48 C1.11928812,48 0,46.8689299 0,45.4736842 L0,2.52631575 C0,1.1310701 1.11928812,0 2.5,0 L37.5,0 Z M26.045,22.8985263 C23.9525623,20.4494503 20.5754365,19.5703518 17.5725,20.6930526 C17.6875,20.7612631 17.795,20.8395789 17.8975,20.920421 L21.0175,24.088421 C21.9548722,24.9062852 22.3601916,26.1856488 22.0671508,27.4015739 C21.77411,28.6174989 20.8320465,29.5652679 19.6275,29.856 C18.4219341,30.1477992 17.1560732,29.7344039 16.3475,28.7848421 L13.225,25.6370526 C13.1382935,25.5250648 13.0597534,25.4068589 12.99,25.2833684 C11.8617747,28.3094933 12.7153498,31.7254732 15.13,33.847579 C17.5460676,35.9712548 21.0129861,36.3559353 23.8275,34.8126316 L31.885,42.9473684 L35,39.8071579 L26.9575,31.68 C28.4995116,28.8478249 28.1355518,25.3452462 26.045,22.8985263 L26.045,22.8985263 Z M9.99999994,7.5789473 L8.74999999,7.5789473 C8.14626922,7.57874397 7.6286715,8.01461573 7.51999999,8.61473683 L7.49999994,8.84210525 L7.49999994,10.1052631 C7.49979873,10.715349 7.93113015,11.2383951 8.52499999,11.3482105 L8.74999999,11.3684211 L9.99999994,11.3684211 C10.6037308,11.3686245 11.1213285,10.9327527 11.23,10.3326315 L11.25,10.1052631 L11.25,8.84210525 C11.25,8.50709494 11.118304,8.18580579 10.8838835,7.94891773 C10.649463,7.71202967 10.3315206,7.5789473 9.99999994,7.5789473 L9.99999994,7.5789473 Z M31.25,7.5789473 L16.25,7.5789473 C15.6462692,7.57874397 15.1286715,8.01461573 15.02,8.61473683 L14.9999999,8.84210525 L14.9999999,10.1052631 C14.9997987,10.715349 15.4311302,11.2383951 16.025,11.3482105 L16.25,11.3684211 L31.25,11.3684211 C31.8537308,11.3686245 32.3713285,10.9327527 32.48,10.3326315 L32.4999999,10.1052631 L32.4999999,8.84210525 C32.4999999,8.14448242 31.9403559,7.5789473 31.25,7.5789473 Z" id="形状" /></svg>
