<?xml version="1.0" standalone="no"?><!DOCTYPE svg PUBLIC "-//W3C//DTD SVG 1.1//EN" "http://www.w3.org/Graphics/SVG/1.1/DTD/svg11.dtd"><svg class="icon" width="200px" height="200.00px" viewBox="0 0 1024 1024" version="1.1" xmlns="http://www.w3.org/2000/svg"><path fill="" d="M438.1184 553.0368 141.0816 553.0368c-15.2832 0-27.7504 12.4928-27.7504 27.7504l0 296.8832c0 15.2576 12.4928 27.7504 27.7504 27.7504l297.0624 0c15.2576 0 27.7504-12.4928 27.7504-27.7504L465.8944 582.1696C465.8688 565.5296 453.376 553.0368 438.1184 553.0368L438.1184 553.0368 438.1184 553.0368 438.1184 553.0368zM890.624 553.0368 593.5872 553.0368c-15.2576 0-27.7504 12.4928-27.7504 27.7504l0 296.8832c0 15.2576 12.4928 27.7504 27.7504 27.7504L890.624 905.4208c15.2832 0 27.7504-12.4928 27.7504-27.7504L918.3744 582.1696C918.4 565.5296 905.9072 553.0368 890.624 553.0368L890.624 553.0368 890.624 553.0368 890.624 553.0368zM890.624 131.3024 593.5872 131.3024c-15.2576 0-27.7504 12.4928-27.7504 27.7504l0 295.5008c0 15.2576 12.4928 27.7504 27.7504 27.7504L890.624 482.304c15.2832 0 27.7504-12.4928 27.7504-27.7504L918.3744 159.0272C918.4 143.7696 905.9072 131.3024 890.624 131.3024L890.624 131.3024 890.624 131.3024zM875.3664 412.928c0 15.2576-12.4928 27.7504-27.7504 27.7504l-212.3776 0c-15.2832 0-27.776-12.4928-27.776-27.7504L607.4624 202.0352c0-15.2576 12.4928-27.7504 27.776-27.7504l212.3776 0c15.2576 0 27.7504 12.4928 27.7504 27.7504L875.3664 412.928 875.3664 412.928 875.3664 412.928zM438.1184 131.3024 141.0816 131.3024c-15.2832 0-27.7504 12.4928-27.7504 27.7504l0 295.5008c0 15.2576 12.4928 27.7504 27.7504 27.7504l297.0624 0c15.2576 0 27.7504-12.4928 27.7504-27.7504L465.8944 159.0272C465.8688 143.7696 453.376 131.3024 438.1184 131.3024L438.1184 131.3024 438.1184 131.3024z" /></svg>